<?xml version="1.0" standalone="no"?>
<!DOCTYPE svg PUBLIC "-//W3C//DTD SVG 20010904//EN"
 "http://www.w3.org/TR/2001/REC-SVG-20010904/DTD/svg10.dtd">
<svg version="1.0" xmlns="http://www.w3.org/2000/svg"
 width="700.000000pt" height="700.000000pt" viewBox="0 0 700.000000 700.000000"
 preserveAspectRatio="xMidYMid meet">
<metadata>
Created by potrace 1.14, written by Peter Selinger 2001-2017
</metadata>
<g transform="translate(0.000000,700.000000) scale(0.100000,-0.100000)"
fill="#000000" stroke="none">
<path d="M3248 6925 c-2 -2 -33 -6 -68 -9 -64 -6 -131 -14 -180 -22 -14 -2
-41 -7 -60 -10 -35 -5 -127 -22 -166 -30 -225 -46 -522 -149 -763 -265 -121
-58 -374 -199 -391 -219 -3 -3 -30 -22 -60 -42 -95 -65 -103 -71 -198 -147
-317 -252 -590 -562 -790 -896 -86 -144 -190 -349 -231 -455 -18 -47 -37 -94
-42 -105 -46 -103 -134 -397 -154 -515 -3 -19 -10 -51 -15 -70 -5 -19 -14 -71
-20 -115 -6 -44 -13 -91 -15 -105 -15 -100 -20 -196 -20 -410 0 -280 7 -376
46 -600 36 -206 78 -356 174 -611 52 -139 99 -257 104 -263 5 -6 40 -73 79
-148 116 -223 165 -296 398 -595 63 -79 220 -243 330 -343 267 -243 612 -463
959 -610 256 -109 643 -215 860 -236 33 -3 74 -7 90 -9 213 -30 624 -27 840 5
33 5 80 12 105 15 25 4 95 17 157 30 925 199 1727 770 2218 1580 225 371 384
807 454 1245 25 160 29 199 37 350 7 125 1 159 -11 65 -61 -488 -332 -990
-705 -1306 -61 -51 -119 -96 -147 -112 -7 -5 -2 22 12 64 22 64 67 237 79 299
2 14 9 52 15 85 12 67 16 98 26 200 4 39 8 84 10 102 2 18 0 35 -4 37 -7 5
-86 -46 -101 -65 -3 -3 -59 -39 -125 -79 -275 -168 -470 -232 -685 -224 -145
5 -167 9 -416 85 -93 28 -176 52 -184 54 -8 2 -45 11 -83 20 -61 16 -67 20
-61 39 17 56 82 162 136 220 57 63 189 156 219 156 8 0 19 4 25 8 29 26 206
57 319 56 77 -1 200 -14 270 -29 98 -21 99 -20 15 28 -406 232 -831 356 -1200
351 -312 -4 -573 -98 -835 -303 -81 -63 -269 -249 -405 -401 -254 -284 -419
-424 -631 -533 -255 -132 -599 -213 -946 -221 -523 -12 -928 239 -1193 739
l-53 100 11 130 c10 106 45 337 66 430 169 747 544 1281 1116 1588 190 102
466 194 663 222 27 3 59 9 70 11 77 18 456 9 475 -11 2 -2 -15 -21 -39 -42
-136 -122 -241 -266 -414 -563 -151 -260 -210 -334 -299 -376 l-49 -22 114 3
c320 11 601 91 808 230 74 50 180 148 227 211 16 21 31 41 34 44 30 30 121
200 155 293 10 26 22 47 27 47 19 0 254 -118 364 -184 138 -81 235 -144 389
-255 66 -47 140 -100 165 -118 217 -154 539 -333 770 -427 119 -48 327 -117
392 -130 13 -3 66 -13 118 -24 52 -11 122 -23 155 -27 33 -3 74 -8 90 -11 57
-8 470 -11 565 -3 122 10 176 23 280 67 163 68 366 225 356 274 -3 13 -10 50
-17 83 -33 176 -132 491 -211 669 -275 625 -710 1140 -1273 1508 -314 206
-647 353 -1010 448 -112 29 -301 68 -365 75 -75 8 -136 16 -165 22 -35 6 -581
14 -587 8z"/>
</g>
</svg>
