<?xml version="1.0" encoding="UTF-8" standalone="no"?>
<!-- Created with Inkscape (http://www.inkscape.org/) -->

<svg
   width="1920"
   height="1080"
   viewBox="0 0 508 285.75"
   version="1.1"
   id="svg5"
   xmlns="http://www.w3.org/2000/svg"
   xmlns:svg="http://www.w3.org/2000/svg">
  <defs
     id="defs2" />
  <g
     id="layer1">
    <path
       style="fill:#162d50;stroke-width:0.236821;stroke-linejoin:round;stroke-miterlimit:21.9;paint-order:stroke markers fill;stop-color:#000000"
       id="path536"
       d="m 209.01573,89.386121 c -1.13472,1.965395 -19.56828,12.608009 -21.83772,12.608009 -2.26944,0 -20.703,-10.642614 -21.83772,-12.608009 -1.13472,-1.965395 -1.13472,-23.250634 0,-25.216029 1.13472,-1.965394 19.56828,-12.608014 21.83772,-12.608014 2.26944,0 20.703,10.64262 21.83772,12.608015 1.13472,1.965395 1.13472,23.250633 0,25.216028 z"
       transform="matrix(0.98953906,0,0,0.98953906,-0.38137947,-63.429496)" />
    <path
       style="fill:#162d50;stroke-width:0.236821;stroke-linejoin:round;stroke-miterlimit:21.9;paint-order:stroke markers fill;stop-color:#000000"
       id="path538"
       d="m 209.01573,89.386121 c -1.13472,1.965395 -19.56828,12.608009 -21.83772,12.608009 -2.26944,0 -20.703,-10.642614 -21.83772,-12.608009 -1.13472,-1.965395 -1.13472,-23.250634 0,-25.216029 1.13472,-1.965394 19.56828,-12.608014 21.83772,-12.608014 2.26944,0 20.703,10.64262 21.83772,12.608015 1.13472,1.965395 1.13472,23.250633 0,25.216028 z"
       transform="matrix(0.98953906,0,0,0.98953906,45.799466,-63.429496)" />
    <path
       style="fill:#162d50;stroke-width:0.236821;stroke-linejoin:round;stroke-miterlimit:21.9;paint-order:stroke markers fill;stop-color:#000000"
       id="path648"
       d="m 209.01573,89.386121 c -1.13472,1.965395 -19.56828,12.608009 -21.83772,12.608009 -2.26944,0 -20.703,-10.642614 -21.83772,-12.608009 -1.13472,-1.965395 -1.13472,-23.250634 0,-25.216029 1.13472,-1.965394 19.56828,-12.608014 21.83772,-12.608014 2.26944,0 20.703,10.64262 21.83772,12.608015 1.13472,1.965395 1.13472,23.250633 0,25.216028 z"
       transform="matrix(0.98953906,0,0,0.98953906,91.980312,-63.429496)" />
    <path
       style="fill:#162d50;stroke-width:0.236821;stroke-linejoin:round;stroke-miterlimit:21.9;paint-order:stroke markers fill;stop-color:#000000"
       id="path650"
       d="m 209.01573,89.386121 c -1.13472,1.965395 -19.56828,12.608009 -21.83772,12.608009 -2.26944,0 -20.703,-10.642614 -21.83772,-12.608009 -1.13472,-1.965395 -1.13472,-23.250634 0,-25.216029 1.13472,-1.965394 19.56828,-12.608014 21.83772,-12.608014 2.26944,0 20.703,10.64262 21.83772,12.608015 1.13472,1.965395 1.13472,23.250633 0,25.216028 z"
       transform="matrix(0.98953906,0,0,0.98953906,138.16114,-63.429496)" />
    <path
       style="fill:#162d50;stroke-width:0.236821;stroke-linejoin:round;stroke-miterlimit:21.9;paint-order:stroke markers fill;stop-color:#000000"
       id="path652"
       d="m 209.01573,89.386121 c -1.13472,1.965395 -19.56828,12.608009 -21.83772,12.608009 -2.26944,0 -20.703,-10.642614 -21.83772,-12.608009 -1.13472,-1.965395 -1.13472,-23.250634 0,-25.216029 1.13472,-1.965394 19.56828,-12.608014 21.83772,-12.608014 2.26944,0 20.703,10.64262 21.83772,12.608015 1.13472,1.965395 1.13472,23.250633 0,25.216028 z"
       transform="matrix(0.98953906,0,0,0.98953906,184.34199,-63.429496)" />
    <path
       style="fill:#162d50;stroke-width:0.236821;stroke-linejoin:round;stroke-miterlimit:21.9;paint-order:stroke markers fill;stop-color:#000000"
       id="path654"
       d="m 209.01573,89.386121 c -1.13472,1.965395 -19.56828,12.608009 -21.83772,12.608009 -2.26944,0 -20.703,-10.642614 -21.83772,-12.608009 -1.13472,-1.965395 -1.13472,-23.250634 0,-25.216029 1.13472,-1.965394 19.56828,-12.608014 21.83772,-12.608014 2.26944,0 20.703,10.64262 21.83772,12.608015 1.13472,1.965395 1.13472,23.250633 0,25.216028 z"
       transform="matrix(0.98953906,0,0,0.98953906,230.52283,-63.429496)" />
    <path
       style="fill:#162d50;stroke-width:0.236821;stroke-linejoin:round;stroke-miterlimit:21.9;paint-order:stroke markers fill;stop-color:#000000"
       id="path656"
       d="m 209.01573,89.386121 c -1.13472,1.965395 -19.56828,12.608009 -21.83772,12.608009 -2.26944,0 -20.703,-10.642614 -21.83772,-12.608009 -1.13472,-1.965395 -1.13472,-23.250634 0,-25.216029 1.13472,-1.965394 19.56828,-12.608014 21.83772,-12.608014 2.26944,0 20.703,10.64262 21.83772,12.608015 1.13472,1.965395 1.13472,23.250633 0,25.216028 z"
       transform="matrix(0.98953906,0,0,0.98953906,276.70366,-63.429496)" />
    <path
       style="fill:#162d50;stroke-width:0.236821;stroke-linejoin:round;stroke-miterlimit:21.9;paint-order:stroke markers fill;stop-color:#000000"
       id="path658"
       d="m 209.01573,89.386121 c -1.13472,1.965395 -19.56828,12.608009 -21.83772,12.608009 -2.26944,0 -20.703,-10.642614 -21.83772,-12.608009 -1.13472,-1.965395 -1.13472,-23.250634 0,-25.216029 1.13472,-1.965394 19.56828,-12.608014 21.83772,-12.608014 2.26944,0 20.703,10.64262 21.83772,12.608015 1.13472,1.965395 1.13472,23.250633 0,25.216028 z"
       transform="matrix(0.98953906,0,0,0.98953906,322.8845,-63.429496)" />
    <path
       style="fill:#162d50;stroke-width:0.236821;stroke-linejoin:round;stroke-miterlimit:21.9;paint-order:stroke markers fill;stop-color:#000000"
       id="path660"
       d="m 209.01573,89.386121 c -1.13472,1.965395 -19.56828,12.608009 -21.83772,12.608009 -2.26944,0 -20.703,-10.642614 -21.83772,-12.608009 -1.13472,-1.965395 -1.13472,-23.250634 0,-25.216029 1.13472,-1.965394 19.56828,-12.608014 21.83772,-12.608014 2.26944,0 20.703,10.64262 21.83772,12.608015 1.13472,1.965395 1.13472,23.250633 0,25.216028 z"
       transform="matrix(0.98953906,0,0,0.98953906,-46.562225,-63.429496)" />
    <path
       style="fill:#162d50;stroke-width:0.236821;stroke-linejoin:round;stroke-miterlimit:21.9;paint-order:stroke markers fill;stop-color:#000000"
       id="path662"
       d="m 209.01573,89.386121 c -1.13472,1.965395 -19.56828,12.608009 -21.83772,12.608009 -2.26944,0 -20.703,-10.642614 -21.83772,-12.608009 -1.13472,-1.965395 -1.13472,-23.250634 0,-25.216029 1.13472,-1.965394 19.56828,-12.608014 21.83772,-12.608014 2.26944,0 20.703,10.64262 21.83772,12.608015 1.13472,1.965395 1.13472,23.250633 0,25.216028 z"
       transform="matrix(0.98953906,0,0,0.98953906,-92.743071,-63.429496)" />
    <path
       style="fill:#162d50;stroke-width:0.236821;stroke-linejoin:round;stroke-miterlimit:21.9;paint-order:stroke markers fill;stop-color:#000000"
       id="path664"
       d="m 209.01573,89.386121 c -1.13472,1.965395 -19.56828,12.608009 -21.83772,12.608009 -2.26944,0 -20.703,-10.642614 -21.83772,-12.608009 -1.13472,-1.965395 -1.13472,-23.250634 0,-25.216029 1.13472,-1.965394 19.56828,-12.608014 21.83772,-12.608014 2.26944,0 20.703,10.64262 21.83772,12.608015 1.13472,1.965395 1.13472,23.250633 0,25.216028 z"
       transform="matrix(0.98953906,0,0,0.98953906,-138.92392,-63.429496)" />
    <path
       style="fill:#162d50;stroke-width:0.236821;stroke-linejoin:round;stroke-miterlimit:21.9;paint-order:stroke markers fill;stop-color:#000000"
       id="path666"
       d="m 209.01573,89.386121 c -1.13472,1.965395 -19.56828,12.608009 -21.83772,12.608009 -2.26944,0 -20.703,-10.642614 -21.83772,-12.608009 -1.13472,-1.965395 -1.13472,-23.250634 0,-25.216029 1.13472,-1.965394 19.56828,-12.608014 21.83772,-12.608014 2.26944,0 20.703,10.64262 21.83772,12.608015 1.13472,1.965395 1.13472,23.250633 0,25.216028 z"
       transform="matrix(0.98953906,0,0,0.98953906,-185.10476,-63.429496)" />
    <path
       style="fill:#162d50;stroke-width:0.236821;stroke-linejoin:round;stroke-miterlimit:21.9;paint-order:stroke markers fill;stop-color:#000000"
       id="path668"
       d="m 209.01573,89.386121 c -1.13472,1.965395 -19.56828,12.608009 -21.83772,12.608009 -2.26944,0 -20.703,-10.642614 -21.83772,-12.608009 -1.13472,-1.965395 -1.13472,-23.250634 0,-25.216029 1.13472,-1.965394 19.56828,-12.608014 21.83772,-12.608014 2.26944,0 20.703,10.64262 21.83772,12.608015 1.13472,1.965395 1.13472,23.250633 0,25.216028 z"
       transform="matrix(0.98953906,0,0,0.98953906,22.735359,-23.741541)" />
    <path
       style="fill:#162d50;stroke-width:0.236821;stroke-linejoin:round;stroke-miterlimit:21.9;paint-order:stroke markers fill;stop-color:#000000"
       id="path670"
       d="m 209.01573,89.386121 c -1.13472,1.965395 -19.56828,12.608009 -21.83772,12.608009 -2.26944,0 -20.703,-10.642614 -21.83772,-12.608009 -1.13472,-1.965395 -1.13472,-23.250634 0,-25.216029 1.13472,-1.965394 19.56828,-12.608014 21.83772,-12.608014 2.26944,0 20.703,10.64262 21.83772,12.608015 1.13472,1.965395 1.13472,23.250633 0,25.216028 z"
       transform="matrix(0.98953906,0,0,0.98953906,68.916205,-23.741541)" />
    <path
       style="fill:#162d50;stroke-width:0.236821;stroke-linejoin:round;stroke-miterlimit:21.9;paint-order:stroke markers fill;stop-color:#000000"
       id="path672"
       d="m 209.01573,89.386121 c -1.13472,1.965395 -19.56828,12.608009 -21.83772,12.608009 -2.26944,0 -20.703,-10.642614 -21.83772,-12.608009 -1.13472,-1.965395 -1.13472,-23.250634 0,-25.216029 1.13472,-1.965394 19.56828,-12.608014 21.83772,-12.608014 2.26944,0 20.703,10.64262 21.83772,12.608015 1.13472,1.965395 1.13472,23.250633 0,25.216028 z"
       transform="matrix(0.98953906,0,0,0.98953906,115.09705,-23.741541)" />
    <path
       style="fill:#162d50;stroke-width:0.236821;stroke-linejoin:round;stroke-miterlimit:21.9;paint-order:stroke markers fill;stop-color:#000000"
       id="path674"
       d="m 209.01573,89.386121 c -1.13472,1.965395 -19.56828,12.608009 -21.83772,12.608009 -2.26944,0 -20.703,-10.642614 -21.83772,-12.608009 -1.13472,-1.965395 -1.13472,-23.250634 0,-25.216029 1.13472,-1.965394 19.56828,-12.608014 21.83772,-12.608014 2.26944,0 20.703,10.64262 21.83772,12.608015 1.13472,1.965395 1.13472,23.250633 0,25.216028 z"
       transform="matrix(0.98953906,0,0,0.98953906,161.27788,-23.741541)" />
    <path
       style="fill:#162d50;stroke-width:0.236821;stroke-linejoin:round;stroke-miterlimit:21.9;paint-order:stroke markers fill;stop-color:#000000"
       id="path676"
       d="m 209.01573,89.386121 c -1.13472,1.965395 -19.56828,12.608009 -21.83772,12.608009 -2.26944,0 -20.703,-10.642614 -21.83772,-12.608009 -1.13472,-1.965395 -1.13472,-23.250634 0,-25.216029 1.13472,-1.965394 19.56828,-12.608014 21.83772,-12.608014 2.26944,0 20.703,10.64262 21.83772,12.608015 1.13472,1.965395 1.13472,23.250633 0,25.216028 z"
       transform="matrix(0.98953906,0,0,0.98953906,207.45873,-23.741541)" />
    <path
       style="fill:#162d50;stroke-width:0.236821;stroke-linejoin:round;stroke-miterlimit:21.9;paint-order:stroke markers fill;stop-color:#000000"
       id="path678"
       d="m 209.01573,89.386121 c -1.13472,1.965395 -19.56828,12.608009 -21.83772,12.608009 -2.26944,0 -20.703,-10.642614 -21.83772,-12.608009 -1.13472,-1.965395 -1.13472,-23.250634 0,-25.216029 1.13472,-1.965394 19.56828,-12.608014 21.83772,-12.608014 2.26944,0 20.703,10.64262 21.83772,12.608015 1.13472,1.965395 1.13472,23.250633 0,25.216028 z"
       transform="matrix(0.98953906,0,0,0.98953906,253.63957,-23.741541)" />
    <path
       style="fill:#162d50;stroke-width:0.236821;stroke-linejoin:round;stroke-miterlimit:21.9;paint-order:stroke markers fill;stop-color:#000000"
       id="path680"
       d="m 209.01573,89.386121 c -1.13472,1.965395 -19.56828,12.608009 -21.83772,12.608009 -2.26944,0 -20.703,-10.642614 -21.83772,-12.608009 -1.13472,-1.965395 -1.13472,-23.250634 0,-25.216029 1.13472,-1.965394 19.56828,-12.608014 21.83772,-12.608014 2.26944,0 20.703,10.64262 21.83772,12.608015 1.13472,1.965395 1.13472,23.250633 0,25.216028 z"
       transform="matrix(0.98953906,0,0,0.98953906,299.8204,-23.741541)" />
    <path
       style="fill:#162d50;stroke-width:0.236821;stroke-linejoin:round;stroke-miterlimit:21.9;paint-order:stroke markers fill;stop-color:#000000"
       id="path684"
       d="m 209.01573,89.386121 c -1.13472,1.965395 -19.56828,12.608009 -21.83772,12.608009 -2.26944,0 -20.703,-10.642614 -21.83772,-12.608009 -1.13472,-1.965395 -1.13472,-23.250634 0,-25.216029 1.13472,-1.965394 19.56828,-12.608014 21.83772,-12.608014 2.26944,0 20.703,10.64262 21.83772,12.608015 1.13472,1.965395 1.13472,23.250633 0,25.216028 z"
       transform="matrix(0.98953906,0,0,0.98953906,-23.445486,-23.741541)" />
    <path
       style="fill:#162d50;stroke-width:0.236821;stroke-linejoin:round;stroke-miterlimit:21.9;paint-order:stroke markers fill;stop-color:#000000"
       id="path686"
       d="m 209.01573,89.386121 c -1.13472,1.965395 -19.56828,12.608009 -21.83772,12.608009 -2.26944,0 -20.703,-10.642614 -21.83772,-12.608009 -1.13472,-1.965395 -1.13472,-23.250634 0,-25.216029 1.13472,-1.965394 19.56828,-12.608014 21.83772,-12.608014 2.26944,0 20.703,10.64262 21.83772,12.608015 1.13472,1.965395 1.13472,23.250633 0,25.216028 z"
       transform="matrix(0.98953906,0,0,0.98953906,-69.626332,-23.741541)" />
    <path
       style="fill:#162d50;stroke-width:0.236821;stroke-linejoin:round;stroke-miterlimit:21.9;paint-order:stroke markers fill;stop-color:#000000"
       id="path688"
       d="m 209.01573,89.386121 c -1.13472,1.965395 -19.56828,12.608009 -21.83772,12.608009 -2.26944,0 -20.703,-10.642614 -21.83772,-12.608009 -1.13472,-1.965395 -1.13472,-23.250634 0,-25.216029 1.13472,-1.965394 19.56828,-12.608014 21.83772,-12.608014 2.26944,0 20.703,10.64262 21.83772,12.608015 1.13472,1.965395 1.13472,23.250633 0,25.216028 z"
       transform="matrix(0.98953906,0,0,0.98953906,-115.80718,-23.741541)" />
    <path
       style="fill:#162d50;stroke-width:0.236821;stroke-linejoin:round;stroke-miterlimit:21.9;paint-order:stroke markers fill;stop-color:#000000"
       id="path690"
       d="m 209.01573,89.386121 c -1.13472,1.965395 -19.56828,12.608009 -21.83772,12.608009 -2.26944,0 -20.703,-10.642614 -21.83772,-12.608009 -1.13472,-1.965395 -1.13472,-23.250634 0,-25.216029 1.13472,-1.965394 19.56828,-12.608014 21.83772,-12.608014 2.26944,0 20.703,10.64262 21.83772,12.608015 1.13472,1.965395 1.13472,23.250633 0,25.216028 z"
       transform="matrix(0.98953906,0,0,0.98953906,-161.98802,-23.741541)" />
    <path
       style="fill:#162d50;stroke-width:0.236821;stroke-linejoin:round;stroke-miterlimit:21.9;paint-order:stroke markers fill;stop-color:#000000"
       id="path692"
       d="m 209.01573,89.386121 c -1.13472,1.965395 -19.56828,12.608009 -21.83772,12.608009 -2.26944,0 -20.703,-10.642614 -21.83772,-12.608009 -1.13472,-1.965395 -1.13472,-23.250634 0,-25.216029 1.13472,-1.965394 19.56828,-12.608014 21.83772,-12.608014 2.26944,0 20.703,10.64262 21.83772,12.608015 1.13472,1.965395 1.13472,23.250633 0,25.216028 z"
       transform="matrix(0.98953906,0,0,0.98953906,-0.38137947,15.857703)" />
    <path
       style="fill:#162d50;stroke-width:0.236821;stroke-linejoin:round;stroke-miterlimit:21.9;paint-order:stroke markers fill;stop-color:#000000"
       id="path694"
       d="m 209.01573,89.386121 c -1.13472,1.965395 -19.56828,12.608009 -21.83772,12.608009 -2.26944,0 -20.703,-10.642614 -21.83772,-12.608009 -1.13472,-1.965395 -1.13472,-23.250634 0,-25.216029 1.13472,-1.965394 19.56828,-12.608014 21.83772,-12.608014 2.26944,0 20.703,10.64262 21.83772,12.608015 1.13472,1.965395 1.13472,23.250633 0,25.216028 z"
       transform="matrix(0.98953906,0,0,0.98953906,45.799466,15.857703)" />
    <path
       style="fill:#162d50;stroke-width:0.236821;stroke-linejoin:round;stroke-miterlimit:21.9;paint-order:stroke markers fill;stop-color:#000000"
       id="path696"
       d="m 209.01573,89.386121 c -1.13472,1.965395 -19.56828,12.608009 -21.83772,12.608009 -2.26944,0 -20.703,-10.642614 -21.83772,-12.608009 -1.13472,-1.965395 -1.13472,-23.250634 0,-25.216029 1.13472,-1.965394 19.56828,-12.608014 21.83772,-12.608014 2.26944,0 20.703,10.64262 21.83772,12.608015 1.13472,1.965395 1.13472,23.250633 0,25.216028 z"
       transform="matrix(0.98953906,0,0,0.98953906,91.980312,15.857703)" />
    <path
       style="fill:#162d50;stroke-width:0.236821;stroke-linejoin:round;stroke-miterlimit:21.9;paint-order:stroke markers fill;stop-color:#000000"
       id="path698"
       d="m 209.01573,89.386121 c -1.13472,1.965395 -19.56828,12.608009 -21.83772,12.608009 -2.26944,0 -20.703,-10.642614 -21.83772,-12.608009 -1.13472,-1.965395 -1.13472,-23.250634 0,-25.216029 1.13472,-1.965394 19.56828,-12.608014 21.83772,-12.608014 2.26944,0 20.703,10.64262 21.83772,12.608015 1.13472,1.965395 1.13472,23.250633 0,25.216028 z"
       transform="matrix(0.98953906,0,0,0.98953906,138.16114,15.857703)" />
    <path
       style="fill:#162d50;stroke-width:0.236821;stroke-linejoin:round;stroke-miterlimit:21.9;paint-order:stroke markers fill;stop-color:#000000"
       id="path700"
       d="m 209.01573,89.386121 c -1.13472,1.965395 -19.56828,12.608009 -21.83772,12.608009 -2.26944,0 -20.703,-10.642614 -21.83772,-12.608009 -1.13472,-1.965395 -1.13472,-23.250634 0,-25.216029 1.13472,-1.965394 19.56828,-12.608014 21.83772,-12.608014 2.26944,0 20.703,10.64262 21.83772,12.608015 1.13472,1.965395 1.13472,23.250633 0,25.216028 z"
       transform="matrix(0.98953906,0,0,0.98953906,184.34199,15.857703)" />
    <path
       style="fill:#162d50;stroke-width:0.236821;stroke-linejoin:round;stroke-miterlimit:21.9;paint-order:stroke markers fill;stop-color:#000000"
       id="path702"
       d="m 209.01573,89.386121 c -1.13472,1.965395 -19.56828,12.608009 -21.83772,12.608009 -2.26944,0 -20.703,-10.642614 -21.83772,-12.608009 -1.13472,-1.965395 -1.13472,-23.250634 0,-25.216029 1.13472,-1.965394 19.56828,-12.608014 21.83772,-12.608014 2.26944,0 20.703,10.64262 21.83772,12.608015 1.13472,1.965395 1.13472,23.250633 0,25.216028 z"
       transform="matrix(0.98953906,0,0,0.98953906,230.52283,15.857703)" />
    <path
       style="fill:#162d50;stroke-width:0.236821;stroke-linejoin:round;stroke-miterlimit:21.9;paint-order:stroke markers fill;stop-color:#000000"
       id="path704"
       d="m 209.01573,89.386121 c -1.13472,1.965395 -19.56828,12.608009 -21.83772,12.608009 -2.26944,0 -20.703,-10.642614 -21.83772,-12.608009 -1.13472,-1.965395 -1.13472,-23.250634 0,-25.216029 1.13472,-1.965394 19.56828,-12.608014 21.83772,-12.608014 2.26944,0 20.703,10.64262 21.83772,12.608015 1.13472,1.965395 1.13472,23.250633 0,25.216028 z"
       transform="matrix(0.98953906,0,0,0.98953906,276.70366,15.857703)" />
    <path
       style="fill:#162d50;stroke-width:0.236821;stroke-linejoin:round;stroke-miterlimit:21.9;paint-order:stroke markers fill;stop-color:#000000"
       id="path706"
       d="m 209.01573,89.386121 c -1.13472,1.965395 -19.56828,12.608009 -21.83772,12.608009 -2.26944,0 -20.703,-10.642614 -21.83772,-12.608009 -1.13472,-1.965395 -1.13472,-23.250634 0,-25.216029 1.13472,-1.965394 19.56828,-12.608014 21.83772,-12.608014 2.26944,0 20.703,10.64262 21.83772,12.608015 1.13472,1.965395 1.13472,23.250633 0,25.216028 z"
       transform="matrix(0.98953906,0,0,0.98953906,322.8845,15.857703)" />
    <path
       style="fill:#162d50;stroke-width:0.236821;stroke-linejoin:round;stroke-miterlimit:21.9;paint-order:stroke markers fill;stop-color:#000000"
       id="path708"
       d="m 209.01573,89.386121 c -1.13472,1.965395 -19.56828,12.608009 -21.83772,12.608009 -2.26944,0 -20.703,-10.642614 -21.83772,-12.608009 -1.13472,-1.965395 -1.13472,-23.250634 0,-25.216029 1.13472,-1.965394 19.56828,-12.608014 21.83772,-12.608014 2.26944,0 20.703,10.64262 21.83772,12.608015 1.13472,1.965395 1.13472,23.250633 0,25.216028 z"
       transform="matrix(0.98953906,0,0,0.98953906,-46.562225,15.857703)" />
    <path
       style="fill:#162d50;stroke-width:0.236821;stroke-linejoin:round;stroke-miterlimit:21.9;paint-order:stroke markers fill;stop-color:#000000"
       id="path710"
       d="m 209.01573,89.386121 c -1.13472,1.965395 -19.56828,12.608009 -21.83772,12.608009 -2.26944,0 -20.703,-10.642614 -21.83772,-12.608009 -1.13472,-1.965395 -1.13472,-23.250634 0,-25.216029 1.13472,-1.965394 19.56828,-12.608014 21.83772,-12.608014 2.26944,0 20.703,10.64262 21.83772,12.608015 1.13472,1.965395 1.13472,23.250633 0,25.216028 z"
       transform="matrix(0.98953906,0,0,0.98953906,-92.743071,15.857703)" />
    <path
       style="fill:#162d50;stroke-width:0.236821;stroke-linejoin:round;stroke-miterlimit:21.9;paint-order:stroke markers fill;stop-color:#000000"
       id="path712"
       d="m 209.01573,89.386121 c -1.13472,1.965395 -19.56828,12.608009 -21.83772,12.608009 -2.26944,0 -20.703,-10.642614 -21.83772,-12.608009 -1.13472,-1.965395 -1.13472,-23.250634 0,-25.216029 1.13472,-1.965394 19.56828,-12.608014 21.83772,-12.608014 2.26944,0 20.703,10.64262 21.83772,12.608015 1.13472,1.965395 1.13472,23.250633 0,25.216028 z"
       transform="matrix(0.98953906,0,0,0.98953906,-138.92392,15.857703)" />
    <path
       style="fill:#162d50;stroke-width:0.236821;stroke-linejoin:round;stroke-miterlimit:21.9;paint-order:stroke markers fill;stop-color:#000000"
       id="path714"
       d="m 209.01573,89.386121 c -1.13472,1.965395 -19.56828,12.608009 -21.83772,12.608009 -2.26944,0 -20.703,-10.642614 -21.83772,-12.608009 -1.13472,-1.965395 -1.13472,-23.250634 0,-25.216029 1.13472,-1.965394 19.56828,-12.608014 21.83772,-12.608014 2.26944,0 20.703,10.64262 21.83772,12.608015 1.13472,1.965395 1.13472,23.250633 0,25.216028 z"
       transform="matrix(0.98953906,0,0,0.98953906,-185.10476,15.857703)" />
    <path
       style="fill:#162d50;stroke-width:0.236821;stroke-linejoin:round;stroke-miterlimit:21.9;paint-order:stroke markers fill;stop-color:#000000"
       id="path716"
       d="m 209.01573,89.386121 c -1.13472,1.965395 -19.56828,12.608009 -21.83772,12.608009 -2.26944,0 -20.703,-10.642614 -21.83772,-12.608009 -1.13472,-1.965395 -1.13472,-23.250634 0,-25.216029 1.13472,-1.965394 19.56828,-12.608014 21.83772,-12.608014 2.26944,0 20.703,10.64262 21.83772,12.608015 1.13472,1.965395 1.13472,23.250633 0,25.216028 z"
       transform="matrix(0.98953906,0,0,0.98953906,22.735359,55.545658)" />
    <path
       style="fill:#162d50;stroke-width:0.236821;stroke-linejoin:round;stroke-miterlimit:21.9;paint-order:stroke markers fill;stop-color:#000000"
       id="path718"
       d="m 209.01573,89.386121 c -1.13472,1.965395 -19.56828,12.608009 -21.83772,12.608009 -2.26944,0 -20.703,-10.642614 -21.83772,-12.608009 -1.13472,-1.965395 -1.13472,-23.250634 0,-25.216029 1.13472,-1.965394 19.56828,-12.608014 21.83772,-12.608014 2.26944,0 20.703,10.64262 21.83772,12.608015 1.13472,1.965395 1.13472,23.250633 0,25.216028 z"
       transform="matrix(0.98953906,0,0,0.98953906,68.916205,55.545658)" />
    <path
       style="fill:#162d50;stroke-width:0.236821;stroke-linejoin:round;stroke-miterlimit:21.9;paint-order:stroke markers fill;stop-color:#000000"
       id="path720"
       d="m 209.01573,89.386121 c -1.13472,1.965395 -19.56828,12.608009 -21.83772,12.608009 -2.26944,0 -20.703,-10.642614 -21.83772,-12.608009 -1.13472,-1.965395 -1.13472,-23.250634 0,-25.216029 1.13472,-1.965394 19.56828,-12.608014 21.83772,-12.608014 2.26944,0 20.703,10.64262 21.83772,12.608015 1.13472,1.965395 1.13472,23.250633 0,25.216028 z"
       transform="matrix(0.98953906,0,0,0.98953906,115.09705,55.545658)" />
    <path
       style="fill:#162d50;stroke-width:0.236821;stroke-linejoin:round;stroke-miterlimit:21.9;paint-order:stroke markers fill;stop-color:#000000"
       id="path722"
       d="m 209.01573,89.386121 c -1.13472,1.965395 -19.56828,12.608009 -21.83772,12.608009 -2.26944,0 -20.703,-10.642614 -21.83772,-12.608009 -1.13472,-1.965395 -1.13472,-23.250634 0,-25.216029 1.13472,-1.965394 19.56828,-12.608014 21.83772,-12.608014 2.26944,0 20.703,10.64262 21.83772,12.608015 1.13472,1.965395 1.13472,23.250633 0,25.216028 z"
       transform="matrix(0.98953906,0,0,0.98953906,161.27788,55.545658)" />
    <path
       style="fill:#162d50;stroke-width:0.236821;stroke-linejoin:round;stroke-miterlimit:21.9;paint-order:stroke markers fill;stop-color:#000000"
       id="path724"
       d="m 209.01573,89.386121 c -1.13472,1.965395 -19.56828,12.608009 -21.83772,12.608009 -2.26944,0 -20.703,-10.642614 -21.83772,-12.608009 -1.13472,-1.965395 -1.13472,-23.250634 0,-25.216029 1.13472,-1.965394 19.56828,-12.608014 21.83772,-12.608014 2.26944,0 20.703,10.64262 21.83772,12.608015 1.13472,1.965395 1.13472,23.250633 0,25.216028 z"
       transform="matrix(0.98953906,0,0,0.98953906,207.45873,55.545658)" />
    <path
       style="fill:#162d50;stroke-width:0.236821;stroke-linejoin:round;stroke-miterlimit:21.9;paint-order:stroke markers fill;stop-color:#000000"
       id="path726"
       d="m 209.01573,89.386121 c -1.13472,1.965395 -19.56828,12.608009 -21.83772,12.608009 -2.26944,0 -20.703,-10.642614 -21.83772,-12.608009 -1.13472,-1.965395 -1.13472,-23.250634 0,-25.216029 1.13472,-1.965394 19.56828,-12.608014 21.83772,-12.608014 2.26944,0 20.703,10.64262 21.83772,12.608015 1.13472,1.965395 1.13472,23.250633 0,25.216028 z"
       transform="matrix(0.98953906,0,0,0.98953906,253.63957,55.545658)" />
    <path
       style="fill:#162d50;stroke-width:0.236821;stroke-linejoin:round;stroke-miterlimit:21.9;paint-order:stroke markers fill;stop-color:#000000"
       id="path728"
       d="m 209.01573,89.386121 c -1.13472,1.965395 -19.56828,12.608009 -21.83772,12.608009 -2.26944,0 -20.703,-10.642614 -21.83772,-12.608009 -1.13472,-1.965395 -1.13472,-23.250634 0,-25.216029 1.13472,-1.965394 19.56828,-12.608014 21.83772,-12.608014 2.26944,0 20.703,10.64262 21.83772,12.608015 1.13472,1.965395 1.13472,23.250633 0,25.216028 z"
       transform="matrix(0.98953906,0,0,0.98953906,299.8204,55.545658)" />
    <path
       style="fill:#162d50;stroke-width:0.236821;stroke-linejoin:round;stroke-miterlimit:21.9;paint-order:stroke markers fill;stop-color:#000000"
       id="path732"
       d="m 209.01573,89.386121 c -1.13472,1.965395 -19.56828,12.608009 -21.83772,12.608009 -2.26944,0 -20.703,-10.642614 -21.83772,-12.608009 -1.13472,-1.965395 -1.13472,-23.250634 0,-25.216029 1.13472,-1.965394 19.56828,-12.608014 21.83772,-12.608014 2.26944,0 20.703,10.64262 21.83772,12.608015 1.13472,1.965395 1.13472,23.250633 0,25.216028 z"
       transform="matrix(0.98953906,0,0,0.98953906,-23.445486,55.545658)" />
    <path
       style="fill:#162d50;stroke-width:0.236821;stroke-linejoin:round;stroke-miterlimit:21.9;paint-order:stroke markers fill;stop-color:#000000"
       id="path734"
       d="m 209.01573,89.386121 c -1.13472,1.965395 -19.56828,12.608009 -21.83772,12.608009 -2.26944,0 -20.703,-10.642614 -21.83772,-12.608009 -1.13472,-1.965395 -1.13472,-23.250634 0,-25.216029 1.13472,-1.965394 19.56828,-12.608014 21.83772,-12.608014 2.26944,0 20.703,10.64262 21.83772,12.608015 1.13472,1.965395 1.13472,23.250633 0,25.216028 z"
       transform="matrix(0.98953906,0,0,0.98953906,-69.626332,55.545658)" />
    <path
       style="fill:#162d50;stroke-width:0.236821;stroke-linejoin:round;stroke-miterlimit:21.9;paint-order:stroke markers fill;stop-color:#000000"
       id="path736"
       d="m 209.01573,89.386121 c -1.13472,1.965395 -19.56828,12.608009 -21.83772,12.608009 -2.26944,0 -20.703,-10.642614 -21.83772,-12.608009 -1.13472,-1.965395 -1.13472,-23.250634 0,-25.216029 1.13472,-1.965394 19.56828,-12.608014 21.83772,-12.608014 2.26944,0 20.703,10.64262 21.83772,12.608015 1.13472,1.965395 1.13472,23.250633 0,25.216028 z"
       transform="matrix(0.98953906,0,0,0.98953906,-115.80718,55.545658)" />
    <path
       style="fill:#162d50;stroke-width:0.236821;stroke-linejoin:round;stroke-miterlimit:21.9;paint-order:stroke markers fill;stop-color:#000000"
       id="path738"
       d="m 209.01573,89.386121 c -1.13472,1.965395 -19.56828,12.608009 -21.83772,12.608009 -2.26944,0 -20.703,-10.642614 -21.83772,-12.608009 -1.13472,-1.965395 -1.13472,-23.250634 0,-25.216029 1.13472,-1.965394 19.56828,-12.608014 21.83772,-12.608014 2.26944,0 20.703,10.64262 21.83772,12.608015 1.13472,1.965395 1.13472,23.250633 0,25.216028 z"
       transform="matrix(0.98953906,0,0,0.98953906,-161.98802,55.545658)" />
    <path
       style="fill:#162d50;stroke-width:0.236821;stroke-linejoin:round;stroke-miterlimit:21.9;paint-order:stroke markers fill;stop-color:#000000"
       id="path740"
       d="m 209.01573,89.386121 c -1.13472,1.965395 -19.56828,12.608009 -21.83772,12.608009 -2.26944,0 -20.703,-10.642614 -21.83772,-12.608009 -1.13472,-1.965395 -1.13472,-23.250634 0,-25.216029 1.13472,-1.965394 19.56828,-12.608014 21.83772,-12.608014 2.26944,0 20.703,10.64262 21.83772,12.608015 1.13472,1.965395 1.13472,23.250633 0,25.216028 z"
       transform="matrix(0.98953906,0,0,0.98953906,-0.38137947,95.144902)" />
    <path
       style="fill:#162d50;stroke-width:0.236821;stroke-linejoin:round;stroke-miterlimit:21.9;paint-order:stroke markers fill;stop-color:#000000"
       id="path742"
       d="m 209.01573,89.386121 c -1.13472,1.965395 -19.56828,12.608009 -21.83772,12.608009 -2.26944,0 -20.703,-10.642614 -21.83772,-12.608009 -1.13472,-1.965395 -1.13472,-23.250634 0,-25.216029 1.13472,-1.965394 19.56828,-12.608014 21.83772,-12.608014 2.26944,0 20.703,10.64262 21.83772,12.608015 1.13472,1.965395 1.13472,23.250633 0,25.216028 z"
       transform="matrix(0.98953906,0,0,0.98953906,45.799466,95.144902)" />
    <path
       style="fill:#162d50;stroke-width:0.236821;stroke-linejoin:round;stroke-miterlimit:21.9;paint-order:stroke markers fill;stop-color:#000000"
       id="path744"
       d="m 209.01573,89.386121 c -1.13472,1.965395 -19.56828,12.608009 -21.83772,12.608009 -2.26944,0 -20.703,-10.642614 -21.83772,-12.608009 -1.13472,-1.965395 -1.13472,-23.250634 0,-25.216029 1.13472,-1.965394 19.56828,-12.608014 21.83772,-12.608014 2.26944,0 20.703,10.64262 21.83772,12.608015 1.13472,1.965395 1.13472,23.250633 0,25.216028 z"
       transform="matrix(0.98953906,0,0,0.98953906,91.980312,95.144902)" />
    <path
       style="fill:#162d50;stroke-width:0.236821;stroke-linejoin:round;stroke-miterlimit:21.9;paint-order:stroke markers fill;stop-color:#000000"
       id="path746"
       d="m 209.01573,89.386121 c -1.13472,1.965395 -19.56828,12.608009 -21.83772,12.608009 -2.26944,0 -20.703,-10.642614 -21.83772,-12.608009 -1.13472,-1.965395 -1.13472,-23.250634 0,-25.216029 1.13472,-1.965394 19.56828,-12.608014 21.83772,-12.608014 2.26944,0 20.703,10.64262 21.83772,12.608015 1.13472,1.965395 1.13472,23.250633 0,25.216028 z"
       transform="matrix(0.98953906,0,0,0.98953906,138.16114,95.144902)" />
    <path
       style="fill:#162d50;stroke-width:0.236821;stroke-linejoin:round;stroke-miterlimit:21.9;paint-order:stroke markers fill;stop-color:#000000"
       id="path748"
       d="m 209.01573,89.386121 c -1.13472,1.965395 -19.56828,12.608009 -21.83772,12.608009 -2.26944,0 -20.703,-10.642614 -21.83772,-12.608009 -1.13472,-1.965395 -1.13472,-23.250634 0,-25.216029 1.13472,-1.965394 19.56828,-12.608014 21.83772,-12.608014 2.26944,0 20.703,10.64262 21.83772,12.608015 1.13472,1.965395 1.13472,23.250633 0,25.216028 z"
       transform="matrix(0.98953906,0,0,0.98953906,184.34199,95.144902)" />
    <path
       style="fill:#162d50;stroke-width:0.236821;stroke-linejoin:round;stroke-miterlimit:21.9;paint-order:stroke markers fill;stop-color:#000000"
       id="path750"
       d="m 209.01573,89.386121 c -1.13472,1.965395 -19.56828,12.608009 -21.83772,12.608009 -2.26944,0 -20.703,-10.642614 -21.83772,-12.608009 -1.13472,-1.965395 -1.13472,-23.250634 0,-25.216029 1.13472,-1.965394 19.56828,-12.608014 21.83772,-12.608014 2.26944,0 20.703,10.64262 21.83772,12.608015 1.13472,1.965395 1.13472,23.250633 0,25.216028 z"
       transform="matrix(0.98953906,0,0,0.98953906,230.52283,95.144902)" />
    <path
       style="fill:#162d50;stroke-width:0.236821;stroke-linejoin:round;stroke-miterlimit:21.9;paint-order:stroke markers fill;stop-color:#000000"
       id="path752"
       d="m 209.01573,89.386121 c -1.13472,1.965395 -19.56828,12.608009 -21.83772,12.608009 -2.26944,0 -20.703,-10.642614 -21.83772,-12.608009 -1.13472,-1.965395 -1.13472,-23.250634 0,-25.216029 1.13472,-1.965394 19.56828,-12.608014 21.83772,-12.608014 2.26944,0 20.703,10.64262 21.83772,12.608015 1.13472,1.965395 1.13472,23.250633 0,25.216028 z"
       transform="matrix(0.98953906,0,0,0.98953906,276.70366,95.144902)" />
    <path
       style="fill:#162d50;stroke-width:0.236821;stroke-linejoin:round;stroke-miterlimit:21.9;paint-order:stroke markers fill;stop-color:#000000"
       id="path754"
       d="m 209.01573,89.386121 c -1.13472,1.965395 -19.56828,12.608009 -21.83772,12.608009 -2.26944,0 -20.703,-10.642614 -21.83772,-12.608009 -1.13472,-1.965395 -1.13472,-23.250634 0,-25.216029 1.13472,-1.965394 19.56828,-12.608014 21.83772,-12.608014 2.26944,0 20.703,10.64262 21.83772,12.608015 1.13472,1.965395 1.13472,23.250633 0,25.216028 z"
       transform="matrix(0.98953906,0,0,0.98953906,322.8845,95.144902)" />
    <path
       style="fill:#162d50;stroke-width:0.236821;stroke-linejoin:round;stroke-miterlimit:21.9;paint-order:stroke markers fill;stop-color:#000000"
       id="path756"
       d="m 209.01573,89.386121 c -1.13472,1.965395 -19.56828,12.608009 -21.83772,12.608009 -2.26944,0 -20.703,-10.642614 -21.83772,-12.608009 -1.13472,-1.965395 -1.13472,-23.250634 0,-25.216029 1.13472,-1.965394 19.56828,-12.608014 21.83772,-12.608014 2.26944,0 20.703,10.64262 21.83772,12.608015 1.13472,1.965395 1.13472,23.250633 0,25.216028 z"
       transform="matrix(0.98953906,0,0,0.98953906,-46.562225,95.144902)" />
    <path
       style="fill:#162d50;stroke-width:0.236821;stroke-linejoin:round;stroke-miterlimit:21.9;paint-order:stroke markers fill;stop-color:#000000"
       id="path758"
       d="m 209.01573,89.386121 c -1.13472,1.965395 -19.56828,12.608009 -21.83772,12.608009 -2.26944,0 -20.703,-10.642614 -21.83772,-12.608009 -1.13472,-1.965395 -1.13472,-23.250634 0,-25.216029 1.13472,-1.965394 19.56828,-12.608014 21.83772,-12.608014 2.26944,0 20.703,10.64262 21.83772,12.608015 1.13472,1.965395 1.13472,23.250633 0,25.216028 z"
       transform="matrix(0.98953906,0,0,0.98953906,-92.743071,95.144902)" />
    <path
       style="fill:#162d50;stroke-width:0.236821;stroke-linejoin:round;stroke-miterlimit:21.9;paint-order:stroke markers fill;stop-color:#000000"
       id="path760"
       d="m 209.01573,89.386121 c -1.13472,1.965395 -19.56828,12.608009 -21.83772,12.608009 -2.26944,0 -20.703,-10.642614 -21.83772,-12.608009 -1.13472,-1.965395 -1.13472,-23.250634 0,-25.216029 1.13472,-1.965394 19.56828,-12.608014 21.83772,-12.608014 2.26944,0 20.703,10.64262 21.83772,12.608015 1.13472,1.965395 1.13472,23.250633 0,25.216028 z"
       transform="matrix(0.98953906,0,0,0.98953906,-138.92392,95.144902)" />
    <path
       style="fill:#162d50;stroke-width:0.236821;stroke-linejoin:round;stroke-miterlimit:21.9;paint-order:stroke markers fill;stop-color:#000000"
       id="path762"
       d="m 209.01573,89.386121 c -1.13472,1.965395 -19.56828,12.608009 -21.83772,12.608009 -2.26944,0 -20.703,-10.642614 -21.83772,-12.608009 -1.13472,-1.965395 -1.13472,-23.250634 0,-25.216029 1.13472,-1.965394 19.56828,-12.608014 21.83772,-12.608014 2.26944,0 20.703,10.64262 21.83772,12.608015 1.13472,1.965395 1.13472,23.250633 0,25.216028 z"
       transform="matrix(0.98953906,0,0,0.98953906,-185.10476,95.144902)" />
    <path
       style="fill:#162d50;stroke-width:0.236821;stroke-linejoin:round;stroke-miterlimit:21.9;paint-order:stroke markers fill;stop-color:#000000"
       id="path764"
       d="m 209.01573,89.386121 c -1.13472,1.965395 -19.56828,12.608009 -21.83772,12.608009 -2.26944,0 -20.703,-10.642614 -21.83772,-12.608009 -1.13472,-1.965395 -1.13472,-23.250634 0,-25.216029 1.13472,-1.965394 19.56828,-12.608014 21.83772,-12.608014 2.26944,0 20.703,10.64262 21.83772,12.608015 1.13472,1.965395 1.13472,23.250633 0,25.216028 z"
       transform="matrix(0.98953906,0,0,0.98953906,22.735359,134.83286)" />
    <path
       style="fill:#162d50;stroke-width:0.236821;stroke-linejoin:round;stroke-miterlimit:21.9;paint-order:stroke markers fill;stop-color:#000000"
       id="path766"
       d="m 209.01573,89.386121 c -1.13472,1.965395 -19.56828,12.608009 -21.83772,12.608009 -2.26944,0 -20.703,-10.642614 -21.83772,-12.608009 -1.13472,-1.965395 -1.13472,-23.250634 0,-25.216029 1.13472,-1.965394 19.56828,-12.608014 21.83772,-12.608014 2.26944,0 20.703,10.64262 21.83772,12.608015 1.13472,1.965395 1.13472,23.250633 0,25.216028 z"
       transform="matrix(0.98953906,0,0,0.98953906,68.916205,134.83286)" />
    <path
       style="fill:#162d50;stroke-width:0.236821;stroke-linejoin:round;stroke-miterlimit:21.9;paint-order:stroke markers fill;stop-color:#000000"
       id="path768"
       d="m 209.01573,89.386121 c -1.13472,1.965395 -19.56828,12.608009 -21.83772,12.608009 -2.26944,0 -20.703,-10.642614 -21.83772,-12.608009 -1.13472,-1.965395 -1.13472,-23.250634 0,-25.216029 1.13472,-1.965394 19.56828,-12.608014 21.83772,-12.608014 2.26944,0 20.703,10.64262 21.83772,12.608015 1.13472,1.965395 1.13472,23.250633 0,25.216028 z"
       transform="matrix(0.98953906,0,0,0.98953906,115.09705,134.83286)" />
    <path
       style="fill:#162d50;stroke-width:0.236821;stroke-linejoin:round;stroke-miterlimit:21.9;paint-order:stroke markers fill;stop-color:#000000"
       id="path770"
       d="m 209.01573,89.386121 c -1.13472,1.965395 -19.56828,12.608009 -21.83772,12.608009 -2.26944,0 -20.703,-10.642614 -21.83772,-12.608009 -1.13472,-1.965395 -1.13472,-23.250634 0,-25.216029 1.13472,-1.965394 19.56828,-12.608014 21.83772,-12.608014 2.26944,0 20.703,10.64262 21.83772,12.608015 1.13472,1.965395 1.13472,23.250633 0,25.216028 z"
       transform="matrix(0.98953906,0,0,0.98953906,161.27788,134.83286)" />
    <path
       style="fill:#162d50;stroke-width:0.236821;stroke-linejoin:round;stroke-miterlimit:21.9;paint-order:stroke markers fill;stop-color:#000000"
       id="path772"
       d="m 209.01573,89.386121 c -1.13472,1.965395 -19.56828,12.608009 -21.83772,12.608009 -2.26944,0 -20.703,-10.642614 -21.83772,-12.608009 -1.13472,-1.965395 -1.13472,-23.250634 0,-25.216029 1.13472,-1.965394 19.56828,-12.608014 21.83772,-12.608014 2.26944,0 20.703,10.64262 21.83772,12.608015 1.13472,1.965395 1.13472,23.250633 0,25.216028 z"
       transform="matrix(0.98953906,0,0,0.98953906,207.45873,134.83286)" />
    <path
       style="fill:#162d50;stroke-width:0.236821;stroke-linejoin:round;stroke-miterlimit:21.9;paint-order:stroke markers fill;stop-color:#000000"
       id="path774"
       d="m 209.01573,89.386121 c -1.13472,1.965395 -19.56828,12.608009 -21.83772,12.608009 -2.26944,0 -20.703,-10.642614 -21.83772,-12.608009 -1.13472,-1.965395 -1.13472,-23.250634 0,-25.216029 1.13472,-1.965394 19.56828,-12.608014 21.83772,-12.608014 2.26944,0 20.703,10.64262 21.83772,12.608015 1.13472,1.965395 1.13472,23.250633 0,25.216028 z"
       transform="matrix(0.98953906,0,0,0.98953906,253.63957,134.83286)" />
    <path
       style="fill:#162d50;stroke-width:0.236821;stroke-linejoin:round;stroke-miterlimit:21.9;paint-order:stroke markers fill;stop-color:#000000"
       id="path776"
       d="m 209.01573,89.386121 c -1.13472,1.965395 -19.56828,12.608009 -21.83772,12.608009 -2.26944,0 -20.703,-10.642614 -21.83772,-12.608009 -1.13472,-1.965395 -1.13472,-23.250634 0,-25.216029 1.13472,-1.965394 19.56828,-12.608014 21.83772,-12.608014 2.26944,0 20.703,10.64262 21.83772,12.608015 1.13472,1.965395 1.13472,23.250633 0,25.216028 z"
       transform="matrix(0.98953906,0,0,0.98953906,299.8204,134.83286)" />
    <path
       style="fill:#162d50;stroke-width:0.236821;stroke-linejoin:round;stroke-miterlimit:21.9;paint-order:stroke markers fill;stop-color:#000000"
       id="path780"
       d="m 209.01573,89.386121 c -1.13472,1.965395 -19.56828,12.608009 -21.83772,12.608009 -2.26944,0 -20.703,-10.642614 -21.83772,-12.608009 -1.13472,-1.965395 -1.13472,-23.250634 0,-25.216029 1.13472,-1.965394 19.56828,-12.608014 21.83772,-12.608014 2.26944,0 20.703,10.64262 21.83772,12.608015 1.13472,1.965395 1.13472,23.250633 0,25.216028 z"
       transform="matrix(0.98953906,0,0,0.98953906,-23.445486,134.83286)" />
    <path
       style="fill:#162d50;stroke-width:0.236821;stroke-linejoin:round;stroke-miterlimit:21.9;paint-order:stroke markers fill;stop-color:#000000"
       id="path782"
       d="m 209.01573,89.386121 c -1.13472,1.965395 -19.56828,12.608009 -21.83772,12.608009 -2.26944,0 -20.703,-10.642614 -21.83772,-12.608009 -1.13472,-1.965395 -1.13472,-23.250634 0,-25.216029 1.13472,-1.965394 19.56828,-12.608014 21.83772,-12.608014 2.26944,0 20.703,10.64262 21.83772,12.608015 1.13472,1.965395 1.13472,23.250633 0,25.216028 z"
       transform="matrix(0.98953906,0,0,0.98953906,-69.626332,134.83286)" />
    <path
       style="fill:#162d50;stroke-width:0.236821;stroke-linejoin:round;stroke-miterlimit:21.9;paint-order:stroke markers fill;stop-color:#000000"
       id="path784"
       d="m 209.01573,89.386121 c -1.13472,1.965395 -19.56828,12.608009 -21.83772,12.608009 -2.26944,0 -20.703,-10.642614 -21.83772,-12.608009 -1.13472,-1.965395 -1.13472,-23.250634 0,-25.216029 1.13472,-1.965394 19.56828,-12.608014 21.83772,-12.608014 2.26944,0 20.703,10.64262 21.83772,12.608015 1.13472,1.965395 1.13472,23.250633 0,25.216028 z"
       transform="matrix(0.98953906,0,0,0.98953906,-115.80718,134.83286)" />
    <path
       style="fill:#162d50;stroke-width:0.236821;stroke-linejoin:round;stroke-miterlimit:21.9;paint-order:stroke markers fill;stop-color:#000000"
       id="path786"
       d="m 209.01573,89.386121 c -1.13472,1.965395 -19.56828,12.608009 -21.83772,12.608009 -2.26944,0 -20.703,-10.642614 -21.83772,-12.608009 -1.13472,-1.965395 -1.13472,-23.250634 0,-25.216029 1.13472,-1.965394 19.56828,-12.608014 21.83772,-12.608014 2.26944,0 20.703,10.64262 21.83772,12.608015 1.13472,1.965395 1.13472,23.250633 0,25.216028 z"
       transform="matrix(0.98953906,0,0,0.98953906,-161.98802,134.83286)" />
    <path
       style="fill:#162d50;stroke-width:0.236821;stroke-linejoin:round;stroke-miterlimit:21.9;paint-order:stroke markers fill;stop-color:#000000"
       id="path788"
       d="m 209.01573,89.386121 c -1.13472,1.965395 -19.56828,12.608009 -21.83772,12.608009 -2.26944,0 -20.703,-10.642614 -21.83772,-12.608009 -1.13472,-1.965395 -1.13472,-23.250634 0,-25.216029 1.13472,-1.965394 19.56828,-12.608014 21.83772,-12.608014 2.26944,0 20.703,10.64262 21.83772,12.608015 1.13472,1.965395 1.13472,23.250633 0,25.216028 z"
       transform="matrix(0.98953906,0,0,0.98953906,-0.38137947,174.4321)" />
    <path
       style="fill:#162d50;stroke-width:0.236821;stroke-linejoin:round;stroke-miterlimit:21.9;paint-order:stroke markers fill;stop-color:#000000"
       id="path790"
       d="m 209.01573,89.386121 c -1.13472,1.965395 -19.56828,12.608009 -21.83772,12.608009 -2.26944,0 -20.703,-10.642614 -21.83772,-12.608009 -1.13472,-1.965395 -1.13472,-23.250634 0,-25.216029 1.13472,-1.965394 19.56828,-12.608014 21.83772,-12.608014 2.26944,0 20.703,10.64262 21.83772,12.608015 1.13472,1.965395 1.13472,23.250633 0,25.216028 z"
       transform="matrix(0.98953906,0,0,0.98953906,45.799466,174.4321)" />
    <path
       style="fill:#162d50;stroke-width:0.236821;stroke-linejoin:round;stroke-miterlimit:21.9;paint-order:stroke markers fill;stop-color:#000000"
       id="path792"
       d="m 209.01573,89.386121 c -1.13472,1.965395 -19.56828,12.608009 -21.83772,12.608009 -2.26944,0 -20.703,-10.642614 -21.83772,-12.608009 -1.13472,-1.965395 -1.13472,-23.250634 0,-25.216029 1.13472,-1.965394 19.56828,-12.608014 21.83772,-12.608014 2.26944,0 20.703,10.64262 21.83772,12.608015 1.13472,1.965395 1.13472,23.250633 0,25.216028 z"
       transform="matrix(0.98953906,0,0,0.98953906,91.980312,174.4321)" />
    <path
       style="fill:#162d50;stroke-width:0.236821;stroke-linejoin:round;stroke-miterlimit:21.9;paint-order:stroke markers fill;stop-color:#000000"
       id="path794"
       d="m 209.01573,89.386121 c -1.13472,1.965395 -19.56828,12.608009 -21.83772,12.608009 -2.26944,0 -20.703,-10.642614 -21.83772,-12.608009 -1.13472,-1.965395 -1.13472,-23.250634 0,-25.216029 1.13472,-1.965394 19.56828,-12.608014 21.83772,-12.608014 2.26944,0 20.703,10.64262 21.83772,12.608015 1.13472,1.965395 1.13472,23.250633 0,25.216028 z"
       transform="matrix(0.98953906,0,0,0.98953906,138.16114,174.4321)" />
    <path
       style="fill:#162d50;stroke-width:0.236821;stroke-linejoin:round;stroke-miterlimit:21.9;paint-order:stroke markers fill;stop-color:#000000"
       id="path796"
       d="m 209.01573,89.386121 c -1.13472,1.965395 -19.56828,12.608009 -21.83772,12.608009 -2.26944,0 -20.703,-10.642614 -21.83772,-12.608009 -1.13472,-1.965395 -1.13472,-23.250634 0,-25.216029 1.13472,-1.965394 19.56828,-12.608014 21.83772,-12.608014 2.26944,0 20.703,10.64262 21.83772,12.608015 1.13472,1.965395 1.13472,23.250633 0,25.216028 z"
       transform="matrix(0.98953906,0,0,0.98953906,184.34199,174.4321)" />
    <path
       style="fill:#162d50;stroke-width:0.236821;stroke-linejoin:round;stroke-miterlimit:21.9;paint-order:stroke markers fill;stop-color:#000000"
       id="path798"
       d="m 209.01573,89.386121 c -1.13472,1.965395 -19.56828,12.608009 -21.83772,12.608009 -2.26944,0 -20.703,-10.642614 -21.83772,-12.608009 -1.13472,-1.965395 -1.13472,-23.250634 0,-25.216029 1.13472,-1.965394 19.56828,-12.608014 21.83772,-12.608014 2.26944,0 20.703,10.64262 21.83772,12.608015 1.13472,1.965395 1.13472,23.250633 0,25.216028 z"
       transform="matrix(0.98953906,0,0,0.98953906,230.52283,174.4321)" />
    <path
       style="fill:#162d50;stroke-width:0.236821;stroke-linejoin:round;stroke-miterlimit:21.9;paint-order:stroke markers fill;stop-color:#000000"
       id="path800"
       d="m 209.01573,89.386121 c -1.13472,1.965395 -19.56828,12.608009 -21.83772,12.608009 -2.26944,0 -20.703,-10.642614 -21.83772,-12.608009 -1.13472,-1.965395 -1.13472,-23.250634 0,-25.216029 1.13472,-1.965394 19.56828,-12.608014 21.83772,-12.608014 2.26944,0 20.703,10.64262 21.83772,12.608015 1.13472,1.965395 1.13472,23.250633 0,25.216028 z"
       transform="matrix(0.98953906,0,0,0.98953906,276.70366,174.4321)" />
    <path
       style="fill:#162d50;stroke-width:0.236821;stroke-linejoin:round;stroke-miterlimit:21.9;paint-order:stroke markers fill;stop-color:#000000"
       id="path802"
       d="m 209.01573,89.386121 c -1.13472,1.965395 -19.56828,12.608009 -21.83772,12.608009 -2.26944,0 -20.703,-10.642614 -21.83772,-12.608009 -1.13472,-1.965395 -1.13472,-23.250634 0,-25.216029 1.13472,-1.965394 19.56828,-12.608014 21.83772,-12.608014 2.26944,0 20.703,10.64262 21.83772,12.608015 1.13472,1.965395 1.13472,23.250633 0,25.216028 z"
       transform="matrix(0.98953906,0,0,0.98953906,322.8845,174.4321)" />
    <path
       style="fill:#162d50;stroke-width:0.236821;stroke-linejoin:round;stroke-miterlimit:21.9;paint-order:stroke markers fill;stop-color:#000000"
       id="path804"
       d="m 209.01573,89.386121 c -1.13472,1.965395 -19.56828,12.608009 -21.83772,12.608009 -2.26944,0 -20.703,-10.642614 -21.83772,-12.608009 -1.13472,-1.965395 -1.13472,-23.250634 0,-25.216029 1.13472,-1.965394 19.56828,-12.608014 21.83772,-12.608014 2.26944,0 20.703,10.64262 21.83772,12.608015 1.13472,1.965395 1.13472,23.250633 0,25.216028 z"
       transform="matrix(0.98953906,0,0,0.98953906,-46.562225,174.4321)" />
    <path
       style="fill:#162d50;stroke-width:0.236821;stroke-linejoin:round;stroke-miterlimit:21.9;paint-order:stroke markers fill;stop-color:#000000"
       id="path806"
       d="m 209.01573,89.386121 c -1.13472,1.965395 -19.56828,12.608009 -21.83772,12.608009 -2.26944,0 -20.703,-10.642614 -21.83772,-12.608009 -1.13472,-1.965395 -1.13472,-23.250634 0,-25.216029 1.13472,-1.965394 19.56828,-12.608014 21.83772,-12.608014 2.26944,0 20.703,10.64262 21.83772,12.608015 1.13472,1.965395 1.13472,23.250633 0,25.216028 z"
       transform="matrix(0.98953906,0,0,0.98953906,-92.743071,174.4321)" />
    <path
       style="fill:#162d50;stroke-width:0.236821;stroke-linejoin:round;stroke-miterlimit:21.9;paint-order:stroke markers fill;stop-color:#000000"
       id="path808"
       d="m 209.01573,89.386121 c -1.13472,1.965395 -19.56828,12.608009 -21.83772,12.608009 -2.26944,0 -20.703,-10.642614 -21.83772,-12.608009 -1.13472,-1.965395 -1.13472,-23.250634 0,-25.216029 1.13472,-1.965394 19.56828,-12.608014 21.83772,-12.608014 2.26944,0 20.703,10.64262 21.83772,12.608015 1.13472,1.965395 1.13472,23.250633 0,25.216028 z"
       transform="matrix(0.98953906,0,0,0.98953906,-138.92392,174.4321)" />
    <path
       style="fill:#162d50;stroke-width:0.236821;stroke-linejoin:round;stroke-miterlimit:21.9;paint-order:stroke markers fill;stop-color:#000000"
       id="path810"
       d="m 209.01573,89.386121 c -1.13472,1.965395 -19.56828,12.608009 -21.83772,12.608009 -2.26944,0 -20.703,-10.642614 -21.83772,-12.608009 -1.13472,-1.965395 -1.13472,-23.250634 0,-25.216029 1.13472,-1.965394 19.56828,-12.608014 21.83772,-12.608014 2.26944,0 20.703,10.64262 21.83772,12.608015 1.13472,1.965395 1.13472,23.250633 0,25.216028 z"
       transform="matrix(0.98953906,0,0,0.98953906,-185.10476,174.4321)" />
    <path
       style="fill:#162d50;stroke-width:0.236821;stroke-linejoin:round;stroke-miterlimit:21.9;paint-order:stroke markers fill;stop-color:#000000"
       id="path812"
       d="m 209.01573,89.386121 c -1.13472,1.965395 -19.56828,12.608009 -21.83772,12.608009 -2.26944,0 -20.703,-10.642614 -21.83772,-12.608009 -1.13472,-1.965395 -1.13472,-23.250634 0,-25.216029 1.13472,-1.965394 19.56828,-12.608014 21.83772,-12.608014 2.26944,0 20.703,10.64262 21.83772,12.608015 1.13472,1.965395 1.13472,23.250633 0,25.216028 z"
       transform="matrix(0.98953906,0,0,0.98953906,22.735359,214.12006)" />
    <path
       style="fill:#162d50;stroke-width:0.236821;stroke-linejoin:round;stroke-miterlimit:21.9;paint-order:stroke markers fill;stop-color:#000000"
       id="path814"
       d="m 209.01573,89.386121 c -1.13472,1.965395 -19.56828,12.608009 -21.83772,12.608009 -2.26944,0 -20.703,-10.642614 -21.83772,-12.608009 -1.13472,-1.965395 -1.13472,-23.250634 0,-25.216029 1.13472,-1.965394 19.56828,-12.608014 21.83772,-12.608014 2.26944,0 20.703,10.64262 21.83772,12.608015 1.13472,1.965395 1.13472,23.250633 0,25.216028 z"
       transform="matrix(0.98953906,0,0,0.98953906,68.916205,214.12006)" />
    <path
       style="fill:#162d50;stroke-width:0.236821;stroke-linejoin:round;stroke-miterlimit:21.9;paint-order:stroke markers fill;stop-color:#000000"
       id="path816"
       d="m 209.01573,89.386121 c -1.13472,1.965395 -19.56828,12.608009 -21.83772,12.608009 -2.26944,0 -20.703,-10.642614 -21.83772,-12.608009 -1.13472,-1.965395 -1.13472,-23.250634 0,-25.216029 1.13472,-1.965394 19.56828,-12.608014 21.83772,-12.608014 2.26944,0 20.703,10.64262 21.83772,12.608015 1.13472,1.965395 1.13472,23.250633 0,25.216028 z"
       transform="matrix(0.98953906,0,0,0.98953906,115.09705,214.12006)" />
    <path
       style="fill:#162d50;stroke-width:0.236821;stroke-linejoin:round;stroke-miterlimit:21.9;paint-order:stroke markers fill;stop-color:#000000"
       id="path818"
       d="m 209.01573,89.386121 c -1.13472,1.965395 -19.56828,12.608009 -21.83772,12.608009 -2.26944,0 -20.703,-10.642614 -21.83772,-12.608009 -1.13472,-1.965395 -1.13472,-23.250634 0,-25.216029 1.13472,-1.965394 19.56828,-12.608014 21.83772,-12.608014 2.26944,0 20.703,10.64262 21.83772,12.608015 1.13472,1.965395 1.13472,23.250633 0,25.216028 z"
       transform="matrix(0.98953906,0,0,0.98953906,161.27788,214.12006)" />
    <path
       style="fill:#162d50;stroke-width:0.236821;stroke-linejoin:round;stroke-miterlimit:21.9;paint-order:stroke markers fill;stop-color:#000000"
       id="path820"
       d="m 209.01573,89.386121 c -1.13472,1.965395 -19.56828,12.608009 -21.83772,12.608009 -2.26944,0 -20.703,-10.642614 -21.83772,-12.608009 -1.13472,-1.965395 -1.13472,-23.250634 0,-25.216029 1.13472,-1.965394 19.56828,-12.608014 21.83772,-12.608014 2.26944,0 20.703,10.64262 21.83772,12.608015 1.13472,1.965395 1.13472,23.250633 0,25.216028 z"
       transform="matrix(0.98953906,0,0,0.98953906,207.45873,214.12006)" />
    <path
       style="fill:#162d50;stroke-width:0.236821;stroke-linejoin:round;stroke-miterlimit:21.9;paint-order:stroke markers fill;stop-color:#000000"
       id="path822"
       d="m 209.01573,89.386121 c -1.13472,1.965395 -19.56828,12.608009 -21.83772,12.608009 -2.26944,0 -20.703,-10.642614 -21.83772,-12.608009 -1.13472,-1.965395 -1.13472,-23.250634 0,-25.216029 1.13472,-1.965394 19.56828,-12.608014 21.83772,-12.608014 2.26944,0 20.703,10.64262 21.83772,12.608015 1.13472,1.965395 1.13472,23.250633 0,25.216028 z"
       transform="matrix(0.98953906,0,0,0.98953906,253.63957,214.12006)" />
    <path
       style="fill:#162d50;stroke-width:0.236821;stroke-linejoin:round;stroke-miterlimit:21.9;paint-order:stroke markers fill;stop-color:#000000"
       id="path824"
       d="m 209.01573,89.386121 c -1.13472,1.965395 -19.56828,12.608009 -21.83772,12.608009 -2.26944,0 -20.703,-10.642614 -21.83772,-12.608009 -1.13472,-1.965395 -1.13472,-23.250634 0,-25.216029 1.13472,-1.965394 19.56828,-12.608014 21.83772,-12.608014 2.26944,0 20.703,10.64262 21.83772,12.608015 1.13472,1.965395 1.13472,23.250633 0,25.216028 z"
       transform="matrix(0.98953906,0,0,0.98953906,299.8204,214.12006)" />
    <path
       style="fill:#162d50;stroke-width:0.236821;stroke-linejoin:round;stroke-miterlimit:21.9;paint-order:stroke markers fill;stop-color:#000000"
       id="path828"
       d="m 209.01573,89.386121 c -1.13472,1.965395 -19.56828,12.608009 -21.83772,12.608009 -2.26944,0 -20.703,-10.642614 -21.83772,-12.608009 -1.13472,-1.965395 -1.13472,-23.250634 0,-25.216029 1.13472,-1.965394 19.56828,-12.608014 21.83772,-12.608014 2.26944,0 20.703,10.64262 21.83772,12.608015 1.13472,1.965395 1.13472,23.250633 0,25.216028 z"
       transform="matrix(0.98953906,0,0,0.98953906,-23.445486,214.12006)" />
    <path
       style="fill:#162d50;stroke-width:0.236821;stroke-linejoin:round;stroke-miterlimit:21.9;paint-order:stroke markers fill;stop-color:#000000"
       id="path830"
       d="m 209.01573,89.386121 c -1.13472,1.965395 -19.56828,12.608009 -21.83772,12.608009 -2.26944,0 -20.703,-10.642614 -21.83772,-12.608009 -1.13472,-1.965395 -1.13472,-23.250634 0,-25.216029 1.13472,-1.965394 19.56828,-12.608014 21.83772,-12.608014 2.26944,0 20.703,10.64262 21.83772,12.608015 1.13472,1.965395 1.13472,23.250633 0,25.216028 z"
       transform="matrix(0.98953906,0,0,0.98953906,-69.626332,214.12006)" />
    <path
       style="fill:#162d50;stroke-width:0.236821;stroke-linejoin:round;stroke-miterlimit:21.9;paint-order:stroke markers fill;stop-color:#000000"
       id="path832"
       d="m 209.01573,89.386121 c -1.13472,1.965395 -19.56828,12.608009 -21.83772,12.608009 -2.26944,0 -20.703,-10.642614 -21.83772,-12.608009 -1.13472,-1.965395 -1.13472,-23.250634 0,-25.216029 1.13472,-1.965394 19.56828,-12.608014 21.83772,-12.608014 2.26944,0 20.703,10.64262 21.83772,12.608015 1.13472,1.965395 1.13472,23.250633 0,25.216028 z"
       transform="matrix(0.98953906,0,0,0.98953906,-115.80718,214.12006)" />
    <path
       style="fill:#162d50;stroke-width:0.236821;stroke-linejoin:round;stroke-miterlimit:21.9;paint-order:stroke markers fill;stop-color:#000000"
       id="path834"
       d="m 209.01573,89.386121 c -1.13472,1.965395 -19.56828,12.608009 -21.83772,12.608009 -2.26944,0 -20.703,-10.642614 -21.83772,-12.608009 -1.13472,-1.965395 -1.13472,-23.250634 0,-25.216029 1.13472,-1.965394 19.56828,-12.608014 21.83772,-12.608014 2.26944,0 20.703,10.64262 21.83772,12.608015 1.13472,1.965395 1.13472,23.250633 0,25.216028 z"
       transform="matrix(0.98953906,0,0,0.98953906,-161.98802,214.12006)" />
  </g>
</svg>
