<?xml version="1.0" encoding="UTF-8" standalone="no"?>
<!-- Created with Inkscape (http://www.inkscape.org/) -->

<svg
   id="svg634"
   version="1.1"
   viewBox="0 0 210 210"
   height="210mm"
   width="210mm"
   xmlns="http://www.w3.org/2000/svg"
   xmlns:svg="http://www.w3.org/2000/svg">
  <defs
     id="defs631" />
  <g
     id="layer1">
    <path
       d="M 61.339943,118.33728 V 88.145134 h 9.289893 9.289892 v 30.192146 30.19215 h -9.289892 -9.289893 z m 30.966321,0.0768 V 88.144659 h 8.515726 c 7.68768,0 8.51575,0.325512 8.51575,3.33668 0,3.105531 0.19019,3.163318 2.76612,0.833165 8.3074,-7.518047 19.26461,-8.456729 29.09555,-2.492544 7.45312,4.5218 8.39447,8.430577 8.39447,34.85823 v 24.00329 l -8.90278,-0.46449 -8.90283,-0.46413 -0.4356,-20.05991 c -0.48205,-22.19867 -1.79836,-25.61538 -9.86828,-25.61538 -8.65917,0 -10.57084,4.16623 -10.83406,23.6118 -0.12801,9.58022 -0.30357,18.46366 -0.38696,19.74102 -0.10972,1.71899 -2.46402,2.44317 -9.05406,2.78697 l -8.902826,0.46449 z M 63.158165,75.271903 c -4.616784,-4.914426 -4.329273,-10.917636 0.713201,-14.883908 5.035121,-3.960749 8.468797,-4.053867 13.038364,-0.354771 7.296626,5.908408 2.524364,18.82103 -6.955606,18.82103 -1.886141,0 -4.944271,-1.612565 -6.795849,-3.583558 z"
       style="display:inline;fill:#ffffff;fill-opacity:1;stroke-width:1.54831"
       id="path1034" />
  </g>
</svg>
