<?xml version="1.0" encoding="UTF-8" standalone="no"?>
<!-- Created with Inkscape (http://www.inkscape.org/) -->

<svg
   width="200.806mm"
   height="67.848mm"
   viewBox="0 0 200.806 67.848"
   version="1.1"
   id="svg760"
   inkscape:version="1.2.1 (9c6d41e410, 2022-07-14)"
   sodipodi:docname="logo-colored.svg"
   xmlns:inkscape="http://www.inkscape.org/namespaces/inkscape"
   xmlns:sodipodi="http://sodipodi.sourceforge.net/DTD/sodipodi-0.dtd"
   xmlns:xlink="http://www.w3.org/1999/xlink"
   xmlns="http://www.w3.org/2000/svg"
   xmlns:svg="http://www.w3.org/2000/svg">
  <sodipodi:namedview
     id="namedview762"
     pagecolor="#ffffff"
     bordercolor="#000000"
     borderopacity="0.25"
     inkscape:showpageshadow="2"
     inkscape:pageopacity="0.0"
     inkscape:pagecheckerboard="0"
     inkscape:deskcolor="#d1d1d1"
     inkscape:document-units="mm"
     showgrid="false"
     inkscape:zoom="0.74564394"
     inkscape:cx="338.63348"
     inkscape:cy="119.35992"
     inkscape:window-width="1920"
     inkscape:window-height="1017"
     inkscape:window-x="-8"
     inkscape:window-y="-8"
     inkscape:window-maximized="1"
     inkscape:current-layer="layer1" />
  <defs
     id="defs757">
    <radialGradient
       inkscape:collect="always"
       xlink:href="#linearGradient53224"
       id="radialGradient52474-9"
       gradientUnits="userSpaceOnUse"
       gradientTransform="matrix(3.6113992,3.693996,-4.086209,3.0983543,93.977308,-462.37527)"
       cx="87.332161"
       cy="90.818001"
       fx="87.332161"
       fy="90.818001"
       r="31.081696" />
    <linearGradient
       inkscape:collect="always"
       id="linearGradient53224">
      <stop
         style="stop-color:#59c8fd;stop-opacity:1;"
         offset="0"
         id="stop53220" />
      <stop
         style="stop-color:#ad78c8;stop-opacity:1;"
         offset="1"
         id="stop53222" />
    </linearGradient>
  </defs>
  <g
     inkscape:label="Layer 1"
     inkscape:groupmode="layer"
     id="layer1"
     transform="translate(-7.0967928,-117.07615)">
    <g
       aria-label="Beta Fish"
       transform="matrix(5.9738948,0,0,5.9738948,-2621.5094,-848.74548)"
       id="text822-8"
       style="font-size:5.33333px;font-family:'Merriweather Sans';-inkscape-font-specification:'Merriweather Sans';text-align:center;text-anchor:middle;white-space:pre;shape-inside:url(#rect824);fill:#b7bfdb;fill-opacity:0.498039;stroke-width:0.755906;stroke-linejoin:round;stroke-miterlimit:21.9;paint-order:stroke markers fill;stop-color:#000000">
      <path
         id="path52462-6"
         style="fill:#d9e5ff;fill-opacity:1;fill-rule:nonzero;stroke:none;stroke-width:0.572646;stroke-linejoin:round;stroke-miterlimit:21.9;stroke-opacity:1;paint-order:stroke markers fill;stop-color:#000000"
         d="m 112.14647,136.51201 c -0.65193,1.54295 -1.36823,3.05792 -2.14694,4.54093 -0.92585,1.73185 -1.93614,3.41719 -3.02729,5.04994 -1.0908,1.63272 -2.26112,3.2109 -3.50669,4.72885 -1.24609,1.51833 -2.56602,2.97455 -3.955004,4.3634 -1.38841,1.38842 -2.844109,2.70784 -4.361898,3.95352 -1.517923,1.24608 -3.096108,2.41688 -4.72886,3.50817 -1.632791,1.09063 -3.318118,2.10046 -5.049939,3.02582 -1.73226,0.92607 -3.508942,1.76653 -5.323636,2.51829 -1.814003,0.7512 -3.66376,1.41289 -5.542646,1.9827 -1.879191,0.57013 -3.785267,1.04763 -5.711312,1.43079 -1.925951,0.38315 -3.869547,0.67154 -5.823777,0.86409 -0.193851,0.012 -0.387636,0.02 -0.5815,0.0287 -1.761946,0.16492 -3.53034,0.25167 -5.299974,0.26026 -1.963539,1.2e-4 -3.925897,-0.0962 -5.879992,-0.28852 -1.954228,-0.1927 -3.897823,-0.48095 -5.823769,-0.8641 -1.926042,-0.38316 -3.83211,-0.86066 -5.711317,-1.43078 -1.879376,-0.56975 -3.729645,-1.23149 -5.54412,-1.98271 -1.814206,-0.75183 -3.590403,-1.59226 -5.322177,-2.51829 -1.731812,-0.92536 -3.417149,-1.93519 -5.04993,-3.02582 -1.632752,-1.09129 -5.24485,-4.15317 -5.24485,-4.15317 0,0 -3.072483,2.33556 -4.146957,3.23933 -1.07356,0.93023 -2.079298,1.93597 -3.009539,3.00953 -0.93029,1.07318 -1.7827447,2.21144 -2.5508588,3.40609 -0.767729,1.19519 -1.449098,2.44374 -2.03891,3.73602 -0.5904845,1.29206 -1.0879135,2.62465 -1.4884945,3.98756 -0.4000011,1.36306 -0.7021186,2.75299 -0.9040444,4.15914 -0.2020587,1.40599 -0.3034133,2.8246 -0.303319,4.24502 -9.43e-5,1.42043 0.1012736,2.83905 0.303319,4.24505 0.2019152,1.40616 0.5040433,2.79608 0.9040444,4.15919 0.400581,1.36292 0.89801,2.6955 1.4884945,3.98756 0.589871,1.2918 1.27124,2.53982 2.03891,3.73456 0.5865851,0.87679 1.2192698,1.72187 1.8953868,2.53162 1.228989,0.7112 2.495303,1.39472 3.796697,2.04928 1.761835,0.86454 4.616192,1.41772 6.493255,2.17299 1.877768,0.75541 3.808258,1.45403 5.785296,2.09365 1.97689,0.63985 3.998228,1.21997 6.05755,1.73856 2.059143,0.51829 4.154049,0.97453 6.278008,1.36716 1.115035,0.18868 2.236911,0.35988 3.364646,0.51344 1.021401,0.17151 2.048502,0.32841 3.08056,0.47051 2.170618,0.2637 4.358837,0.46227 6.557655,0.5948 2.198753,0.13224 4.405734,0.19843 6.613884,0.19814 2.208156,1.5e-4 4.415133,-0.0661 6.613864,-0.19814 2.198825,-0.13263 4.387041,-0.33101 6.557666,-0.5948 2.170585,-0.26342 4.321269,-0.59163 6.445213,-0.98395 2.124011,-0.39312 4.21892,-0.84984 6.278009,-1.36866 2.059261,-0.51806 4.080617,-1.09773 6.057537,-1.73706 1.97704,-0.63959 3.907545,-1.33824 5.785306,-2.09365 1.877079,-0.75527 3.699433,-1.56645 5.461273,-2.43099 1.76237,-0.86491 3.4623,-1.78225 5.09431,-2.74914 1.6318,-0.96663 3.19394,-1.98175 4.6815,-3.0421 1.4878,-1.06036 2.89936,-2.16486 4.23023,-3.30989 1.33079,-1.14513 2.57945,-2.32958 3.74195,-3.5496 1.16271,-1.21983 2.23804,-2.47389 3.22261,-3.75823 0.98403,-1.28447 1.87617,-2.59778 2.67364,-3.93577 0.79816,-1.33796 1.50075,-2.69919 2.10551,-4.0793 0.60408,-1.38037 1.10968,-2.77811 1.51513,-4.1888 0.40567,-1.4105 0.71077,-2.83247 0.91441,-4.26128 0.20386,-1.42844 0.30608,-2.86226 0.30628,-4.29683 0,-0.47849 -0.012,-0.95695 -0.0341,-1.43521 -0.023,-0.47773 -0.0567,-0.95521 -0.10223,-1.43226 -0.0455,-0.47748 -0.10223,-0.95447 -0.17008,-1.43079 -0.0676,-0.47622 -0.1466,-0.95172 -0.23678,-1.42635 -0.0906,-0.47447 -0.19185,-0.948 -0.30479,-1.42044 -0.11312,-0.47272 -0.23737,-0.94428 -0.37286,-1.41451 -0.13542,-0.46997 -0.28174,-0.93858 -0.43944,-1.40563 -0.1572,-0.46724 -0.32536,-0.93289 -0.50457,-1.39676 -0.17952,-0.46352 -0.36981,-0.92522 -0.57113,-1.38492 -0.20156,-0.46029 -0.4143,-0.91853 -0.63772,-1.37456 -0.22305,-0.45557 -0.45684,-0.90889 -0.70132,-1.35977 -0.24481,-0.45086 -0.50038,-0.89924 -0.76646,-1.34497 -0.2657,-0.44613 -0.5419,-0.88958 -0.82859,-1.33018 -0.28701,-0.44042 -0.58445,-0.87795 -0.89218,-1.31241 -0.3074,-0.43421 -0.62508,-0.86533 -0.95289,-1.29319 -0.32824,-0.4285 -0.66662,-0.8537 -1.01501,-1.27543 -0.34815,-0.4213 -0.70624,-0.83909 -1.0742,-1.25323 -0.36804,-0.41411 -0.74587,-0.8245 -1.13338,-1.23104 -0.38748,-0.40641 -0.78456,-0.80891 -1.19111,-1.20737 -0.40641,-0.3987 -0.8222,-0.79331 -1.24731,-1.18369 -0.42532,-0.39051 -0.85988,-0.77673 -1.30354,-1.15853 -0.44331,-0.38132 -0.89564,-0.75818 -1.3568,-1.13044 -0.46127,-0.37261 -0.93135,-0.7406 -1.41008,-1.1038 -0.33521,-0.25142 -0.67455,-0.5005 -1.01797,-0.74721 z"
         sodipodi:nodetypes="ccccccccccsccccsccccccccccccccccccccccccccccccccssccccccccssscccsccccccccsscscsccccc"
         transform="matrix(0.03745424,0,0,0.03745424,440.2857,161.87811)" />
      <path
         id="path52464-8"
         style="display:inline;fill:url(#radialGradient52474-9);fill-opacity:1;stroke:none;stroke-width:0.486964;stroke-linejoin:round;stroke-miterlimit:21.9;stroke-opacity:1;paint-order:stroke markers fill;stop-color:#000000"
         inkscape:transform-center-x="-28.798334"
         inkscape:transform-center-y="84.519507"
         d="m 118.97553,5.7186721 c 0.30267,2.5361872 0.51456,5.0803969 0.63508,7.6288959 0.12188,3.047191 0.11312,6.097827 -0.026,9.145506 -0.13817,3.047788 -0.40646,6.090526 -0.80476,9.121832 -0.3989,3.031632 -0.92737,6.049693 -1.58433,9.04785 -0.65714,2.998116 -1.44229,5.974221 -2.35383,8.922081 -0.91166,2.947192 -1.94897,5.864074 -3.10985,8.744531 -1.16008,2.880772 -2.44286,5.723127 -3.84572,8.521106 -1.40301,2.79838 -2.92511,5.550419 -4.56312,8.250337 -1.63886,2.699462 -3.392424,5.344894 -5.257034,7.930737 -1.864059,2.585876 -3.837882,5.110388 -5.91727,7.568238 -2.078698,2.458129 -4.261551,4.847897 -6.543965,7.164298 -2.283276,2.316246 -4.664507,4.557446 -7.138714,6.718936 -2.474353,2.16156 -5.039969,4.24187 -7.691458,6.23658 -2.650865,1.99454 -5.38573,3.90212 -8.198861,5.71871 -0.182845,0.1094 -0.365955,0.21839 -0.549384,0.327 0.237823,0.11724 0.477159,0.23216 0.712354,0.35215 0.449823,0.22946 0.895145,0.46382 1.335675,0.70282 0.440529,0.23899 0.877063,0.48166 1.30879,0.72944 0.431727,0.2478 0.858502,0.50028 1.281918,0.75609 0.423403,0.2558 0.84281,0.51518 1.25838,0.77827 0.415583,0.2631 0.828324,0.52939 1.236552,0.799 0.816456,0.53923 1.61759,1.0919 2.407572,1.65273 0.789982,0.56083 1.567922,1.13106 2.335334,1.70747 0.767398,0.57642 1.524455,1.15848 2.27316,1.74448 0.748718,0.586 1.48886,1.1756 2.222762,1.76518 0.733902,0.58956 1.462811,1.17952 2.1858,1.76666 1.445963,1.17427 2.873752,2.33678 4.299362,3.46525 0.712819,0.56424 1.425226,1.12081 2.138761,1.66458 0.713563,0.54376 1.427297,1.07476 2.14548,1.59207 0.718182,0.51729 1.440626,1.01994 2.167305,1.50476 0.36334,0.24241 0.727543,0.48149 1.09375,0.71466 0.366221,0.23315 0.734247,0.46042 1.103814,0.68359 0.369566,0.22315 0.740526,0.44157 1.113916,0.65399 0.373364,0.21242 0.749622,0.41904 1.127353,0.61996 0.377675,0.2009 0.756575,0.39577 1.139075,0.58445 0.3825,0.18866 0.768129,0.37179 1.155919,0.54745 0.38777,0.17565 0.77745,0.34412 1.17101,0.50603 0.3936,0.16192 0.791384,0.31719 1.191204,0.4646 0.39984,0.14739 0.80307,0.28659 1.20967,0.41873 0.40655,0.1321 0.81602,0.25671 1.22982,0.37286 0.41382,0.11617 0.83182,0.22465 1.25333,0.32404 0.42155,0.0994 0.84715,0.19037 1.2769,0.27223 0.42971,0.0819 0.86364,0.1539 1.30206,0.21753 1.07345,0.16675 1.31231,0.47481 1.19111,1.65568 -0.0575,0.49192 -0.12746,0.978 -0.2084,1.45889 -0.081,0.48089 -0.17362,0.95642 -0.27732,1.42636 -0.10369,0.46993 -0.21718,0.93471 -0.34275,1.3938 -0.12547,0.45907 -0.26302,0.91144 -0.40994,1.35975 -0.14695,0.44833 -0.30301,0.89253 -0.47044,1.33018 -0.16743,0.43764 -0.34509,0.86909 -0.53258,1.29614 -0.1876,0.42707 -0.38627,0.84851 -0.59308,1.26507 -0.20678,0.41658 -0.42308,0.8293 -0.64852,1.23549 -0.2253,0.40618 -0.45886,0.80704 -0.70227,1.20292 -0.24352,0.39589 -0.49533,0.78618 -0.75604,1.17186 -0.26074,0.38567 -0.53078,0.7667 -0.80812,1.14226 -0.27732,0.37557 -0.56189,0.74565 -0.85518,1.1112 -0.29325,0.36553 -0.59532,0.72599 -0.90389,1.0816 -0.30854,0.3556 -0.624394,0.70622 -0.947574,1.05199 -0.32316,0.34578 -0.65413,0.68639 -0.99124,1.02242 -0.33712,0.33603 -0.68119,0.66793 -1.031559,0.99431 -0.35042,0.32638 -0.70723,0.64788 -1.07022,0.9647 -0.363037,0.31683 -0.732272,0.62924 -1.107202,0.93661 -0.374917,0.30735 -0.7546,0.60901 -1.140762,0.907 -0.386215,0.29799 -0.777621,0.59166 -1.174392,0.88037 -0.396809,0.28871 -0.799594,0.57275 -1.206321,0.85226 -0.406728,0.27946 -0.817212,0.55521 -1.233167,0.82564 -0.415995,0.27029 -0.83722,0.53606 -1.261752,0.7975 -0.424571,0.26142 -0.85282,0.51836 -1.28529,0.7709 -0.432471,0.25254 -0.869071,0.50052 -1.30879,0.74423 -0.439694,0.24367 -0.882666,0.48263 -1.328958,0.71762 -0.446291,0.23507 -0.895238,0.46611 -1.347412,0.69245 -0.452213,0.22647 -0.908515,0.448 -1.365919,0.66583 -0.457444,0.2179 -0.917384,0.43129 -1.379382,0.64069 -0.923955,0.41874 -1.855811,0.8218 -2.793986,1.20736 -0.938175,0.38553 -1.882231,0.75367 -2.829275,1.10676 -0.947044,0.35306 -1.897207,0.6907 -2.847756,1.01203 -0.950549,0.32137 -1.900752,0.627 -2.849442,0.91738 -0.94869,0.29036 -1.896199,0.56549 -2.837666,0.82562 -0.941481,0.26026 -1.876868,0.50472 -2.805763,0.73536 -0.928894,0.23077 -1.851124,0.44766 -2.762069,0.64954 -0.910958,0.20187 -1.810579,0.38841 -2.698232,0.56227 -0.887649,0.17379 -1.761956,0.33427 -2.620943,0.48087 -0.858988,0.1466 -1.703576,0.27945 -2.528539,0.39951 -0.824964,0.12002 -1.630397,0.2282 -2.415973,0.32254 -0.785579,0.0943 -1.550818,0.17494 -2.291649,0.24423 -0.740829,0.0693 -1.458113,0.12653 -2.148835,0.17151 -0.690724,0.045 -1.355658,0.0775 -1.990911,0.099 -0.635254,0.02 -1.240077,0.0309 -1.814502,0.0295 -0.574421,-0.001 -1.118097,-0.0143 -1.626327,-0.0369 -0.508234,-0.023 -0.981323,-0.0572 -1.418001,-0.10223 -0.579633,-0.0596 -1.150498,-0.11046 -1.713693,-0.15403 -0.563199,-0.0433 -1.119628,-0.0793 -1.666651,-0.10648 -0.547024,-0.0287 -1.085133,-0.0466 -1.616252,-0.0579 -0.531115,-0.012 -1.055411,-0.012 -1.570885,-0.008 -0.515477,0.005 -1.022066,0.0171 -1.522165,0.0401 -0.5001,0.0228 -0.993491,0.052 -1.47848,0.0901 -0.48499,0.0381 -0.961295,0.0842 -1.431442,0.13915 -0.470143,0.0547 -0.933868,0.11803 -1.389436,0.18927 -0.455568,0.0716 -0.90282,0.15146 -1.344073,0.23964 -0.441256,0.0882 -0.876544,0.18354 -1.303751,0.28853 -0.427208,0.10515 -0.846643,0.21846 -1.260072,0.34033 -0.413426,0.12161 -0.819833,0.2534 -1.219745,0.39208 -0.399914,0.13888 -0.794444,0.28518 -1.181107,0.44092 -0.386662,0.15576 -0.765424,0.32122 -1.139102,0.49419 -0.373677,0.17294 -0.74118,0.3543 -1.102139,0.5445 -0.360962,0.19012 -0.71667,0.3888 -1.06518,0.5963 -0.348507,0.20758 -0.690215,0.42318 -1.026537,0.64806 -0.336322,0.22477 -0.666853,0.45901 -0.991255,0.70135 -0.324402,0.24223 -0.643227,0.49325 -0.955973,0.75312 -0.312731,0.25998 -0.619334,0.52889 -0.920692,0.8064 -0.301351,0.27745 -0.596854,0.56296 -0.887086,0.85817 -0.290233,0.2952 -0.57579,0.59992 -0.855168,0.91291 -0.279373,0.31298 -0.552781,0.63535 -0.821565,0.9662 -0.268775,0.33084 -0.532866,0.67065 -0.791325,1.01945 -0.258468,0.3488 -0.511004,0.7059 -0.7594001,1.07273 -0.24839,0.36682 -0.492238,0.74254 -0.730842,1.12746 -0.238604,0.38493 -0.471525,0.77909 -0.700599,1.18223 -0.229079,0.40311 -0.453904,0.81554 -0.673716,1.23695 -0.219812,0.42141 -0.4360225,0.85192 -0.6468345,1.29172 -0.210807,0.43975 -0.416194,0.88822 -0.618278,1.34642 -0.202093,0.45821 -0.399456,0.92595 -0.5930692,1.40267 -0.115453,0.28432 -0.2268672,0.57915 -0.3393808,0.87003 -8.4260683,35.60009 16.1480996,70.80705 56.0210126,80.26026 16.887561,3.97901 34.803887,2.84084 50.86818,-3.23147 -2.6447,-1.0374 -5.25178,-2.14817 -7.81748,-3.33062 -3.05789,-1.43067 -6.053924,-2.96265 -8.981781,-4.59271 -1.522064,-0.88062 -3.024374,-1.78781 -4.505998,-2.72102 3.672562,0.49302 7.380465,0.75413 11.095329,0.78124 17.48208,-0.005 34.45404,-5.18887 48.18674,-14.71626 -2.85998,-0.3992 -5.70519,-0.87785 -8.5315,-1.43524 -3.37408,-0.68514 -6.7181,-1.48221 -10.02514,-2.38955 -1.72813,-0.50364 -3.44495,-1.03736 -5.14947,-1.60096 3.69137,-0.36088 7.34876,-0.95373 10.94411,-1.77405 16.88496,-3.98994 31.75565,-12.86497 42.22074,-25.19787 -2.87983,0.26628 -5.7688,0.45216 -8.66257,0.55782 -3.46062,0.1074 -6.92515,0.0997 -10.38631,-0.0228 -1.81748,-0.0925 -3.6329,-0.21703 -5.44521,-0.37289 3.4603,-1.18984 6.81955,-2.59608 10.05203,-4.208 15.13641,-7.70301 26.89149,-19.66522 33.37502,-33.96311 -2.70364,0.91367 -5.4396,1.75204 -8.20388,2.51387 -3.31042,0.89241 -6.65838,1.67468 -10.03688,2.34518 -1.78343,0.32464 -3.57421,0.61814 -5.37127,0.88038 2.99264,-1.93774 5.82409,-4.06146 8.47273,-6.35493 12.3576,-10.89076 20.1971,-25.1252 22.25786,-40.41425 -2.34306,1.49884 -4.73946,2.9323 -7.18575,4.29828 -2.93578,1.61649 -5.94023,3.13515 -9.00701,4.55278 -1.62665,0.71997 -3.26957,1.41159 -4.9277,2.07442 2.32088,-2.55393 4.43141,-5.25075 6.31548,-8.06983 8.73532,-13.33595 12.12426,-28.8716 9.62189,-44.10882 -1.82251,1.98183 -3.7158,3.91268 -5.67704,5.78974 -2.36072,2.23074 -4.81646,4.38262 -7.36217,6.45112 -1.36009,1.06656 -2.74419,2.10939 -4.15149,3.1279 1.4917,-2.99633 2.73814,-6.0828 3.72981,-9.23576 4.51849,-14.872906 3.22611,-30.651958 -3.66934,-44.7998 -1.17793,2.329608 -2.43917,4.62611 -3.78187,6.886132 -1.62458,2.69252 -3.36412,5.330547 -5.21502,7.908548 -0.99993,1.340468 -2.03004,2.663491 -3.08969,3.968325 0.55975,-3.233839 0.8562,-6.498806 0.88709,-9.769898 -0.007,-15.396525 -5.89156,-30.343888 -16.71022,-42.438341 -0.45327,2.518716 -0.99678,5.024439 -1.62968,7.513492 -0.77742,2.971426 -1.68193,5.916439 -2.71167,8.828864 -0.55293,1.46795 -1.1377,2.926621 -1.75402,4.375224 -0.43923,-3.198525 -1.13372,-6.365834 -2.07828,-9.478418 C 143.05847,28.027603 132.98036,14.931903 118.97614,5.7161721 Z"
         sodipodi:nodetypes="cccccccsccccscccsssssssssssssssssssssssssssccssssscscssssssssssssscsssscssssssccsssccsscsccccccssccscccsssscccsssssssssssscccccccccccccccccccccccccccccccccccccccccccc"
         inkscape:label="path50882"
         transform="matrix(0.03745424,0,0,0.03745424,440.2857,161.87811)" />
      <circle
         style="fill:#4c505b;fill-opacity:1;fill-rule:nonzero;stroke:none;stroke-width:0.572646;stroke-linejoin:round;stroke-miterlimit:21.9;stroke-opacity:1;paint-order:stroke markers fill;stop-color:#000000"
         id="circle52468-4"
         cx="82.227577"
         cy="146.15916"
         r="5.6246195"
         transform="matrix(0.03745424,0,0,0.03745424,440.2857,161.87811)" />
      <path
         d="m 449.80201,169.86063 v -4.07231 l 0.30105,0.005 q 0.13409,0 0.27368,-0.008 0.13957,-0.0104 0.30104,-0.0192 0.16147,-0.0104 0.36126,-0.0104 0.46798,0 0.76902,0.12041 0.30104,0.12043 0.4461,0.33936 0.14504,0.21621 0.14504,0.50904 0,0.19157 -0.0657,0.38862 -0.063,0.19704 -0.19978,0.34757 -0.13683,0.14779 -0.35305,0.20527 0.24905,0.0137 0.44611,0.15324 0.19977,0.13686 0.31745,0.35305 0.11769,0.21347 0.11769,0.46525 0,0.36947 -0.14779,0.65409 -0.14778,0.28462 -0.5063,0.44608 -0.35853,0.16148 -0.99345,0.16148 -0.2381,0 -0.49261,-0.0164 -0.25452,-0.0137 -0.40231,-0.0219 z m 0.63494,-2.32899 q 0.0739,0.0104 0.1642,0.0164 0.0903,0.002 0.1861,0.002 0.0958,-0.002 0.18337,-0.002 0.0903,-0.002 0.16421,-0.002 0.27914,0 0.45978,-0.18063 0.18336,-0.18062 0.18336,-0.55282 0,-0.30925 -0.21896,-0.45704 -0.21893,-0.14779 -0.6267,-0.14779 -0.0492,0 -0.156,0.005 -0.10401,0.002 -0.20253,0.0104 -0.0986,0.008 -0.13683,0.0219 z m 0,1.84458 q 0.0464,0.0273 0.16146,0.0411 0.1149,0.0137 0.24631,0.0192 0.1341,0.002 0.22989,0.002 0.44063,0 0.68967,-0.16148 0.24905,-0.16146 0.24905,-0.57472 0,-0.36946 -0.22443,-0.53641 -0.22167,-0.16967 -0.69239,-0.16967 -0.0767,0 -0.16968,0 -0.0904,-0.002 -0.18336,0 -0.0903,0 -0.16969,0.002 -0.0793,0.002 -0.13683,0.0104 z"
         id="path4020-6"
         style="fill:#d9e5ff;fill-opacity:1;stroke-width:0.775776" />
      <path
         d="m 454.48774,169.89862 c -0.49419,0 -0.87513,-0.15649 -1.14281,-0.46948 -0.26769,-0.31299 -0.40153,-0.74747 -0.40153,-1.30342 0,-0.33357 0.0587,-0.63215 0.17605,-0.89572 0.11943,-0.26357 0.29446,-0.47257 0.52508,-0.627 0.23269,-0.15444 0.51787,-0.23371 0.85556,-0.23782 0.17296,-0.003 0.33564,0.0208 0.48802,0.0741 0.15237,0.0535 0.28725,0.13485 0.40461,0.244 0.11737,0.10702 0.21003,0.24298 0.27798,0.40771 0.0701,0.16472 0.10819,0.35726 0.11432,0.57758 0,0.12973 -10e-4,0.24606 -0.003,0.34902 -0.002,0.10089 -0.0116,0.19047 -0.0278,0.26872 h -2.39681 l 0.0617,-0.45095 h 1.69878 c 0.0104,-0.16472 -3e-5,-0.3202 -0.0309,-0.46639 -0.0288,-0.14826 -0.0927,-0.26769 -0.1915,-0.35828 -0.0968,-0.0927 -0.24093,-0.139 -0.43242,-0.139 -0.16062,0 -0.30475,0.0453 -0.43241,0.1359 -0.12767,0.0885 -0.2265,0.23886 -0.29652,0.45096 -0.0701,0.21207 -0.0989,0.50241 -0.0865,0.87101 0.0124,0.25943 0.0649,0.46432 0.15753,0.61464 0.0927,0.15031 0.21415,0.25738 0.36446,0.32121 0.15032,0.0638 0.31814,0.0958 0.50346,0.0958 0.0783,0 0.174,-0.008 0.28725,-0.0247 0.11328,-0.0185 0.22237,-0.0412 0.32739,-0.068 0.10703,-0.0288 0.18842,-0.0597 0.24401,-0.0927 l 0.1359,0.40771 c -0.0762,0.0617 -0.1802,0.11633 -0.31195,0.16369 -0.12973,0.0474 -0.27078,0.0844 -0.42315,0.1112 -0.15238,0.0268 -0.30064,0.0402 -0.44477,0.0402 z"
         id="path4022-7"
         sodipodi:nodetypes="cssccccccccccccccscccscscccccscc"
         style="fill:#d9e5ff;fill-opacity:1;stroke-width:0.875532" />
      <path
         d="m 457.26287,169.89862 c -0.16268,0 -0.30578,-0.0257 -0.42934,-0.0773 -0.12355,-0.0515 -0.22032,-0.1421 -0.29034,-0.27179 -0.068,-0.13179 -0.10192,-0.31814 -0.10192,-0.55906 v -2.05706 h -0.44477 v -0.25167 c 0.15238,-0.0432 0.26873,-0.0792 0.34903,-0.10806 0.0803,-0.0309 0.13899,-0.0958 0.17605,-0.19459 0.0165,-0.0453 0.035,-0.0989 0.0556,-0.1606 0.0206,-0.0638 0.0433,-0.13387 0.068,-0.21004 0.0247,-0.0783 0.0514,-0.16267 0.0803,-0.25326 h 0.42624 v 0.66386 0.12066 h 0.96366 v 0.39375 h -0.96366 v 1.68024 c 0,0.22239 0.009,0.38505 0.0278,0.48801 0.0206,0.10088 0.0577,0.16576 0.11119,0.19459 0.0556,0.0268 0.13693,0.0402 0.244,0.0402 0.0577,0 0.12358,-0.006 0.19768,-0.0185 0.0762,-0.0145 0.14828,-0.032 0.2162,-0.0525 0.0701,-0.0206 0.12357,-0.0423 0.16062,-0.0649 l 0.11736,0.4077 c -0.0617,0.0474 -0.14516,0.0937 -0.25018,0.13899 -0.10297,0.0432 -0.21723,0.0792 -0.34284,0.10807 -0.12356,0.0288 -0.2471,0.0432 -0.37063,0.0432 z"
         id="path4024-4"
         sodipodi:nodetypes="cscsccccccccccccccsccscccccccc"
         style="fill:#d9e5ff;fill-opacity:1;stroke-width:0.875532" />
      <path
         d="m 459.5005,169.89862 c -0.20592,0 -0.38918,-0.0402 -0.54979,-0.12046 -0.15855,-0.0824 -0.28416,-0.19768 -0.37682,-0.34594 -0.0906,-0.15031 -0.13589,-0.32739 -0.13589,-0.53124 0,-0.22034 0.0587,-0.40669 0.17605,-0.55906 0.11943,-0.15444 0.279,-0.2749 0.47874,-0.36137 0.13179,-0.0535 0.2749,-0.0958 0.42933,-0.12663 0.15443,-0.033 0.30888,-0.0556 0.46331,-0.068 0.15443,-0.0145 0.29754,-0.0217 0.42931,-0.0217 l 0.14826,0.1884 -0.14826,0.25018 c -0.0803,0 -0.17708,0.006 -0.29032,0.0185 -0.1112,0.0104 -0.22136,0.0278 -0.3305,0.0525 -0.10911,0.0226 -0.20179,0.0525 -0.27798,0.0895 -0.10506,0.0474 -0.19253,0.10806 -0.26253,0.18222 -0.0701,0.0741 -0.10506,0.17709 -0.10506,0.30888 0,0.17296 0.0474,0.30371 0.14209,0.39225 0.0968,0.0885 0.23988,0.13282 0.42932,0.13282 0.0968,0 0.19459,-0.0144 0.29343,-0.0432 0.0988,-0.0288 0.18429,-0.0617 0.25636,-0.0988 0.0741,-0.0371 0.12252,-0.069 0.14516,-0.0958 l 0.14208,0.15134 -0.10192,0.26563 c -0.0906,0.0823 -0.22136,0.15957 -0.39227,0.23165 -0.1709,0.072 -0.35828,0.10807 -0.56214,0.10807 z m 1.62773,-0.0495 h -0.67333 v -0.51271 h -0.0402 V 167.44 c 0,-0.2018 -0.0535,-0.33462 -0.1606,-0.39844 -0.10506,-0.0659 -0.25534,-0.0988 -0.45096,-0.0988 -0.12972,0 -0.26356,0.0134 -0.40152,0.0402 -0.13796,0.0247 -0.2646,0.0566 -0.37991,0.0958 -0.11536,0.0371 -0.20386,0.0752 -0.26563,0.11432 l -0.16679,-0.51271 c 0.0474,-0.0288 0.13794,-0.0689 0.27181,-0.12046 0.13589,-0.0515 0.29342,-0.0979 0.47256,-0.13899 0.18121,-0.0432 0.36035,-0.0649 0.53744,-0.0649 0.25738,0 0.47977,0.0299 0.66715,0.0895 0.18943,0.0597 0.33461,0.17088 0.4355,0.33358 0.10297,0.1606 0.15443,0.39431 0.15443,0.70112 z"
         id="path4026-9"
         sodipodi:nodetypes="cccscccccccccccscsscccccccccccscsccccccscccc"
         style="fill:#d9e5ff;fill-opacity:1;stroke-width:0.875532" />
      <path
         id="path4028-5"
         style="fill:#d9e5ff;fill-opacity:1;stroke-width:0.94566"
         d="m 466.53661,166.35662 v 3.48331 h 0.71032 v -3.48331 h -2.2e-4 c -0.003,0.005 -0.007,0.009 -0.0116,0.013 -0.005,0.006 -0.009,0.0104 -0.0147,0.0153 -0.005,0.005 -0.0104,0.0104 -0.0155,0.0149 -0.006,0.005 -0.0104,0.009 -0.0162,0.014 -0.006,0.005 -0.0116,0.009 -0.0168,0.0134 -0.006,0.005 -0.0116,0.008 -0.0175,0.0125 -0.006,0.003 -0.0119,0.008 -0.0179,0.0117 -0.006,0.003 -0.0123,0.007 -0.0187,0.0116 -0.006,0.003 -0.0126,0.007 -0.019,0.0104 -0.007,0.003 -0.0128,0.006 -0.0195,0.009 -0.007,0.002 -0.0132,0.006 -0.0199,0.008 -0.007,0.002 -0.0133,0.005 -0.0202,0.007 -0.007,0.002 -0.0137,0.005 -0.0205,0.007 -0.007,0.002 -0.0139,0.003 -0.021,0.006 -0.007,10e-4 -0.0139,0.003 -0.021,0.005 -0.007,0.001 -0.0141,0.002 -0.0212,0.003 -0.007,0.001 -0.0142,0.002 -0.0214,0.002 -0.007,6.7e-4 -0.0143,0.001 -0.0214,0.001 -0.007,3.1e-4 -0.0142,4.6e-4 -0.0214,4.4e-4 -0.007,2e-5 -0.0144,-1.3e-4 -0.0217,-4.4e-4 -0.007,-3.4e-4 -0.0143,-8.3e-4 -0.0214,-0.001 -0.007,-6.9e-4 -0.0142,-0.001 -0.0214,-0.002 -0.007,-0.001 -0.0141,-0.002 -0.0212,-0.003 -0.007,-0.001 -0.014,-0.002 -0.021,-0.005 -0.007,-0.001 -0.0139,-0.003 -0.0207,-0.006 -0.007,-0.002 -0.0138,-0.005 -0.0205,-0.007 -0.007,-0.002 -0.0137,-0.005 -0.0204,-0.007 -0.007,-0.002 -0.0133,-0.006 -0.0199,-0.008 -0.007,-0.002 -0.013,-0.006 -0.0195,-0.009 -0.007,-0.003 -0.0128,-0.007 -0.019,-0.0104 -0.006,-0.003 -0.0123,-0.007 -0.0184,-0.0116 -0.006,-0.003 -0.0122,-0.008 -0.0182,-0.0117 -0.006,-0.005 -0.0116,-0.008 -0.0173,-0.0125 -0.006,-0.005 -0.0116,-0.009 -0.0169,-0.0134 -0.006,-0.005 -0.0104,-0.009 -0.0162,-0.014 -0.006,-0.005 -0.0104,-0.009 -0.0155,-0.0149 -0.005,-0.005 -0.0104,-0.0104 -0.0149,-0.0153 -0.003,-0.005 -0.008,-0.008 -0.0116,-0.013 z"
         sodipodi:nodetypes="ccccccccccsccssccccccccccccccccsssccccccccc" />
      <path
         id="path5882-32"
         style="fill:#d9e5ff;fill-opacity:1;stroke-width:0.94566"
         d="m 466.53617,165.75611 h -2.96935 v 4.14258 h 0.78728 v -1.63153 h 1.56116 v -0.60052 h -1.56116 v -1.31002 h 2.18251 c -7.8e-4,-0.001 -10e-4,-0.002 -0.002,-0.003 l -0.0134,-0.0168 c -0.005,-0.006 -0.008,-0.0116 -0.0125,-0.0175 -0.003,-0.006 -0.008,-0.0119 -0.0117,-0.018 -0.003,-0.006 -0.008,-0.0124 -0.0116,-0.0186 -0.003,-0.006 -0.007,-0.0126 -0.0104,-0.019 -0.003,-0.007 -0.006,-0.0129 -0.009,-0.0195 -0.002,-0.007 -0.006,-0.0132 -0.008,-0.0199 -0.002,-0.007 -0.005,-0.0133 -0.007,-0.0202 -0.002,-0.007 -0.003,-0.0137 -0.006,-0.0205 -0.002,-0.007 -0.003,-0.0139 -0.006,-0.021 -10e-4,-0.007 -0.003,-0.0139 -0.005,-0.021 -10e-4,-0.007 -0.002,-0.0141 -0.003,-0.0212 -9.4e-4,-0.007 -0.001,-0.0143 -0.002,-0.0214 -5.5e-4,-0.007 -9.4e-4,-0.0142 -0.001,-0.0214 -3.8e-4,-0.007 -6e-4,-0.0142 -6.4e-4,-0.0214 4e-5,-0.007 2.6e-4,-0.0145 6.4e-4,-0.0217 2.2e-4,-0.007 6.1e-4,-0.0143 0.001,-0.0214 6.1e-4,-0.007 10e-4,-0.0143 0.002,-0.0214 10e-4,-0.007 0.002,-0.0141 0.003,-0.0212 10e-4,-0.007 0.003,-0.014 0.005,-0.021 0.002,-0.007 0.003,-0.0139 0.006,-0.0207 0.002,-0.007 0.003,-0.0137 0.006,-0.0205 0.002,-0.007 0.005,-0.0135 0.007,-0.0203 0.002,-0.007 0.006,-0.0133 0.008,-0.0199 0.003,-0.007 0.006,-0.0131 0.009,-0.0195 0.003,-0.007 0.007,-0.0127 0.0104,-0.019 0.003,-0.006 0.008,-0.0124 0.0116,-0.0184 0.003,-0.006 0.008,-0.0122 0.0117,-0.0182 0.003,-0.006 0.008,-0.0116 0.0125,-0.0173 0.005,-0.006 0.009,-0.0116 0.0134,-0.0169 7.7e-4,-7.7e-4 0.001,-10e-4 0.002,-0.002 z"
         sodipodi:nodetypes="ccccccccccccccccccccccccccccccccccccccccccc" />
      <path
         d="m 467.61419,169.63609 0.0988,-0.52507 c 0.0309,0.0226 0.0948,0.0535 0.19151,0.0927 0.0988,0.0371 0.21621,0.072 0.35211,0.10505 0.13796,0.0309 0.28003,0.0474 0.42624,0.0495 0.19766,0.002 0.34798,-0.0316 0.45094,-0.10193 0.10297,-0.0701 0.15443,-0.16784 0.15443,-0.29342 0,-0.0886 -0.0309,-0.16577 -0.0927,-0.23165 -0.0617,-0.0659 -0.14723,-0.12661 -0.25636,-0.18223 -0.10702,-0.0577 -0.22959,-0.1174 -0.36755,-0.17915 -0.18532,-0.0844 -0.34901,-0.17605 -0.4911,-0.27488 -0.14208,-0.0988 -0.25327,-0.21519 -0.33357,-0.34902 -0.0783,-0.13385 -0.11636,-0.29447 -0.11432,-0.48184 0.003,-0.20385 0.0625,-0.3727 0.17605,-0.50655 0.11536,-0.13591 0.26768,-0.2368 0.45713,-0.30268 0.18943,-0.0659 0.40049,-0.0988 0.63317,-0.0988 0.21621,0 0.40564,0.0227 0.56832,0.068 0.16267,0.0432 0.26974,0.0803 0.32122,0.11119 l -0.10505,0.53743 c -0.0371,-0.0309 -0.0947,-0.0607 -0.17297,-0.0895 -0.0762,-0.0309 -0.16475,-0.0556 -0.26562,-0.0741 -0.10088,-0.0185 -0.20385,-0.0278 -0.30887,-0.0278 -0.21003,0 -0.36858,0.0309 -0.47565,0.0927 -0.10702,0.0597 -0.16268,0.14411 -0.16679,0.25328 -0.002,0.1503 0.0491,0.26253 0.15443,0.33665 0.10714,0.0741 0.23475,0.14723 0.38299,0.21931 0.21209,0.10297 0.40359,0.20487 0.5745,0.30578 0.17091,0.0988 0.30579,0.21312 0.40462,0.34284 0.10088,0.12766 0.15134,0.28621 0.15134,0.47565 0,0.32122 -0.11015,0.56523 -0.33049,0.73202 -0.22032,0.16679 -0.52198,0.25018 -0.90498,0.25018 -0.15855,0 -0.31298,-0.0124 -0.4633,-0.0371 -0.14826,-0.0247 -0.28004,-0.0566 -0.39535,-0.0958 -0.11327,-0.0392 -0.19768,-0.0793 -0.25327,-0.12046 z"
         id="path4032-6"
         sodipodi:nodetypes="ccccccscccsccccsccccssccccccssscccc"
         style="fill:#d9e5ff;fill-opacity:1;stroke-width:0.875532" />
      <path
         d="m 470.32863,169.83994 v -4.08471 h 0.71041 v 0.47714 l -0.002,0.57932 -0.0339,-0.0803 c 0.0824,-0.0659 0.1528,-0.0892 0.28046,-0.15309 0.12768,-0.0638 0.26564,-0.11637 0.4139,-0.15752 0.14825,-0.0432 0.29548,-0.0669 0.44167,-0.071 0.37476,-0.0104 0.64656,0.0927 0.81541,0.30887 0.1709,0.2162 0.25636,0.57552 0.25636,1.07795 v 2.10338 h -0.71039 v -2.10956 c 0,-0.28211 -0.0442,-0.48596 -0.13282,-0.61156 -0.0865,-0.1256 -0.25532,-0.18223 -0.50654,-0.16987 -0.10911,0.002 -0.23988,0.028 -0.39226,0.0773 -0.15237,0.0495 -0.29549,0.12457 -0.42932,0.22548 v 2.58831 z"
         id="path4034-4"
         sodipodi:nodetypes="ccccccscccsccscccccc"
         style="fill:#d9e5ff;fill-opacity:1;stroke-width:0.875532" />
      <circle
         style="font-variation-settings:normal;opacity:1;fill:#4c505b;fill-opacity:1;stroke-width:0.099065;stroke-linecap:butt;stroke-linejoin:round;stroke-miterlimit:21.9;stroke-dasharray:none;stroke-dashoffset:0;stroke-opacity:1;paint-order:stroke markers fill;stop-color:#000000;stop-opacity:1"
         id="path5747-7"
         cx="466.89175"
         cy="-166.05608"
         r="0.35518774"
         transform="scale(1,-1)" />
    </g>
  </g>
</svg>
